<svg version="1.1" id="Layer_1" xmlns="http://www.w3.org/2000/svg" xmlns:xlink="http://www.w3.org/1999/xlink" x="0px" y="0px"
	 width="100%" viewBox="0 0 1376 511" enable-background="new 0 0 1376 511" xml:space="preserve">
<path fill="none" opacity="0" stroke="none" 
	d="
M849.000000,512.000000 
	C566.037415,512.000000 283.574799,512.000000 1.056097,512.000000 
	C1.056097,341.726624 1.056097,171.453232 1.056097,1.089921 
	C459.545990,1.089921 918.092041,1.089921 1376.819092,1.089921 
	C1376.819092,171.333176 1376.819092,341.666565 1376.819092,512.000000 
	C1201.119751,512.000000 1025.309937,512.000000 849.000000,512.000000 
M674.104309,286.629944 
	C678.004211,263.166046 677.705627,239.908432 671.102417,216.870102 
	C663.910828,191.778961 649.289429,172.642746 626.267395,160.125031 
	C608.776062,150.614502 589.669861,148.175812 570.201660,147.947464 
	C543.720825,147.636841 517.235352,147.724594 490.751801,147.670013 
	C489.506622,147.667435 488.260895,147.941574 487.127380,148.073792 
	C487.127380,220.500076 487.127380,292.523895 487.127380,365.430389 
	C503.457916,365.430389 519.431274,365.840302 535.374756,365.325073 
	C554.657959,364.701935 574.083923,364.542847 593.150757,361.975494 
	C636.376282,356.155151 665.692566,328.420197 674.104309,286.629944 
M84.456688,245.059158 
	C70.517975,230.597885 47.551266,231.119553 36.646351,246.145111 
	C25.410032,261.627350 28.910316,281.484314 44.492523,292.232880 
	C56.282124,300.365295 78.940033,300.258179 89.147629,280.921356 
	C90.771919,277.844330 92.716118,276.896393 96.146072,276.913483 
	C127.468285,277.069489 158.791489,277.020813 190.114395,277.053009 
	C191.550751,277.054474 192.986893,277.256592 194.843292,277.397064 
	C194.299896,293.356018 201.264725,301.882935 217.994797,300.228333 
	C217.994797,302.724182 217.992798,304.371887 217.995102,306.019592 
	C218.038971,337.515015 218.015778,369.010834 218.213043,400.505280 
	C218.237732,404.448181 217.087570,406.662323 213.644821,408.830231 
	C194.403229,420.946625 193.334534,446.056061 211.266754,459.260071 
	C225.949310,470.071228 246.954056,465.692078 256.889191,449.568787 
	C265.126953,436.200104 261.042938,415.246246 244.164124,407.509308 
	C240.319794,405.747131 238.955002,403.599884 238.987015,399.259857 
	C239.184952,372.433319 239.023987,345.604095 238.986115,318.775787 
	C238.977783,312.872742 238.984894,306.969727 238.984894,301.305023 
	C262.283203,298.013489 262.418396,297.887360 265.538757,277.143799 
	C267.230194,277.143799 269.014465,277.143829 270.798767,277.143799 
	C301.127930,277.143219 331.458099,277.273132 361.785339,277.031372 
	C367.813629,276.983307 372.950562,277.170715 375.546936,283.728607 
	C376.126495,285.192444 377.610474,286.317139 378.738953,287.541809 
	C387.694336,297.260590 399.045258,298.898163 410.866150,295.456635 
	C421.942444,292.231873 429.534912,284.380035 431.934265,272.810211 
	C435.144806,257.328522 426.195465,241.469650 412.141754,236.633362 
	C396.784210,231.348358 380.351776,237.997223 372.990448,252.831543 
	C371.354706,256.127838 369.629120,257.369415 365.880096,257.348907 
	C334.218872,257.175690 302.556335,257.239929 270.894196,257.232849 
	C269.116180,257.232452 267.338165,257.232788 264.939392,257.232788 
	C265.458496,239.783585 257.108612,231.977402 240.043793,234.275406 
	C239.818817,232.438965 239.568466,231.322327 239.561539,230.204178 
	C239.353760,196.713638 239.233780,163.222260 238.891174,129.733170 
	C238.853928,126.092896 240.604019,124.928589 243.416687,123.691261 
	C256.915344,117.753090 263.775696,104.081863 260.450775,90.116623 
	C256.956848,75.441498 245.855865,66.397644 230.769623,65.935692 
	C217.597412,65.532349 203.883774,74.834679 200.155991,86.701744 
	C195.813843,100.524536 201.153625,115.339767 213.795624,123.116020 
	C217.109589,125.154495 218.233658,127.233322 218.219864,131.015839 
	C218.097717,164.509186 218.179733,198.003265 218.173553,231.497131 
	C218.173401,232.261703 217.845703,233.026215 217.670807,233.790756 
	C217.432053,233.365341 217.193298,232.939926 216.954559,232.514526 
	C211.142960,234.558868 203.795486,235.106995 199.943863,239.060715 
	C195.946136,243.164398 195.332001,250.564331 192.997269,257.208099 
	C192.284607,257.208099 190.471588,257.208618 188.658569,257.208008 
	C158.497772,257.197876 128.336380,257.092590 98.176849,257.283539 
	C93.825012,257.311066 91.027565,256.607269 89.482895,252.105682 
	C88.656609,249.697647 86.489182,247.749817 84.456688,245.059158 
M691.336548,305.120667 
	C694.301697,320.664337 699.991882,335.129456 711.795776,345.941315 
	C739.697998,371.498383 772.089539,374.009155 806.375000,362.020752 
	C822.075867,356.530701 831.470276,343.678650 839.885498,329.656219 
	C830.529907,325.430420 821.786011,321.400085 812.941406,317.604370 
	C812.002136,317.201294 809.914673,317.753357 809.300293,318.569946 
	C798.671265,332.697968 783.611328,335.558350 767.401978,334.772644 
	C744.634399,333.669067 731.202820,311.346283 730.429260,296.218140 
	C767.178711,296.218140 803.907776,296.218140 840.993713,296.218140 
	C840.993713,284.127930 841.521362,272.469421 840.874634,260.876434 
	C839.807007,241.738190 831.266541,226.084778 816.312866,214.188675 
	C795.926453,197.970642 772.554688,195.770554 748.120483,201.265717 
	C720.373779,207.505844 702.642639,224.927750 694.107605,251.917328 
	C688.667114,269.121094 688.597839,286.617706 691.336548,305.120667 
M1131.080444,282.449249 
	C1131.080444,238.532394 1131.080444,194.615540 1131.080444,150.164291 
	C1119.352783,150.164291 1108.231201,150.361633 1097.122681,150.063095 
	C1092.925537,149.950302 1090.658691,151.231873 1088.561279,154.983704 
	C1063.614868,199.607101 1038.767944,244.292313 1013.144897,288.526855 
	C1006.869690,299.360199 1009.978516,309.949646 1009.048706,321.180420 
	C1039.059937,321.180420 1068.288208,321.180420 1098.000000,321.180420 
	C1098.000000,335.007568 1098.000000,348.435089 1098.000000,362.229584 
	C1109.213257,362.229584 1119.941406,362.229584 1131.296143,362.229584 
	C1131.296143,348.512299 1131.296143,334.978119 1131.296143,320.958313 
	C1140.826172,320.958313 1149.739136,320.958313 1158.742188,320.958313 
	C1158.742188,310.891144 1158.742188,301.334930 1158.742188,291.282837 
	C1149.495728,291.282837 1140.580200,291.282837 1131.077393,291.282837 
	C1131.077393,288.336243 1131.077393,285.883179 1131.080444,282.449249 
M841.745178,201.376953 
	C841.918213,203.281113 841.672974,205.343597 842.325134,207.066406 
	C861.723694,258.311462 881.239502,309.512085 900.606018,360.769135 
	C901.647400,363.525269 903.021667,364.147949 905.711975,364.120636 
	C918.375183,363.992004 931.043579,363.908600 943.703064,364.160736 
	C947.348511,364.233337 948.833252,362.995972 950.072937,359.666351 
	C969.312805,307.990356 988.701294,256.369659 1008.041260,204.730896 
	C1008.369812,203.853592 1008.522461,202.910400 1008.912109,201.395584 
	C995.480469,201.395584 982.535583,201.303635 969.597595,201.557449 
	C968.474426,201.579483 966.878174,203.700897 966.372253,205.150879 
	C953.806274,241.166031 941.355164,277.221283 928.894043,313.273010 
	C928.079041,315.631012 927.348206,318.018127 926.578186,320.391693 
	C925.080505,318.926331 924.712402,317.579651 924.248413,316.266785 
	C911.097412,279.054230 897.972412,241.832260 884.640076,204.684692 
	C884.137085,203.283249 881.631470,201.769684 880.022217,201.727997 
	C867.530884,201.404358 855.030396,201.429947 841.745178,201.376953 
M1255.069702,321.642914 
	C1274.496460,279.247803 1293.673584,236.735199 1313.530518,194.542542 
	C1318.331299,184.341827 1320.303467,174.168945 1319.738647,163.189240 
	C1319.601929,160.529144 1319.402954,157.835373 1319.665283,155.200165 
	C1320.069214,151.142914 1318.381714,150.195374 1314.520508,150.205856 
	C1269.040527,150.329346 1223.559937,150.284073 1178.079590,150.297211 
	C1176.486328,150.297668 1174.893066,150.443558 1173.145752,150.529205 
	C1173.145752,160.255157 1173.181274,169.402069 1173.125854,178.548431 
	C1173.107422,181.591919 1175.027222,181.425171 1177.165283,181.425339 
	C1210.146729,181.427780 1243.128052,181.468475 1276.109497,181.521194 
	C1277.389526,181.523239 1278.669312,181.734589 1280.679565,181.913345 
	C1252.400879,242.287064 1224.353394,302.167023 1196.139648,362.402008 
	C1209.094604,362.402008 1221.232910,362.562714 1233.356445,362.214508 
	C1235.016968,362.166809 1237.263306,359.903320 1238.119995,358.126465 
	C1243.834717,346.274902 1249.245605,334.276764 1255.069702,321.642914 
M357.563721,146.950348 
	C359.362152,148.915634 361.225983,150.825409 362.948792,152.854889 
	C378.620850,171.316574 390.948059,191.718018 398.947479,214.666428 
	C399.509766,216.279465 401.155029,218.615875 402.420471,218.697540 
	C408.814545,219.110123 415.249603,218.887238 421.708588,218.887238 
	C416.932861,163.829269 336.245331,83.736504 283.607849,81.359314 
	C283.465057,82.279594 283.186005,83.226868 283.190399,84.172813 
	C283.320251,111.990799 283.397583,139.809616 283.735809,167.625244 
	C283.777344,171.038956 283.097290,172.960983 280.035400,174.804947 
	C271.243134,180.099899 264.974915,187.445374 264.152130,198.202957 
	C262.962067,213.762329 273.583160,227.138763 289.525208,230.411743 
	C304.416504,233.469009 319.755432,224.838150 324.673431,210.634613 
	C329.862732,195.647583 323.763794,181.463257 308.737061,174.174164 
	C305.667358,172.685150 304.184357,170.965591 304.176697,167.422150 
	C304.136658,148.943604 303.882751,130.465546 303.736664,111.987068 
	C303.730682,111.229752 304.059204,110.469780 304.226990,109.732452 
	C315.813599,111.594261 339.702942,128.262314 357.563721,146.950348 
M350.385529,356.863586 
	C352.681458,353.027618 354.906219,349.146057 357.316986,345.383667 
	C358.033539,344.265472 359.254730,342.691986 360.275146,342.668793 
	C369.535339,342.458374 378.802338,342.545410 388.956451,342.545410 
	C387.868011,344.796265 387.373749,346.153473 386.611969,347.338776 
	C382.110748,354.342377 377.904083,361.571503 372.943512,368.237457 
	C350.655396,398.187988 322.821625,420.486877 286.084747,430.321564 
	C284.896271,430.639740 283.273560,432.302277 283.221161,433.403259 
	C282.938080,439.346497 283.087097,445.310303 283.087097,451.344757 
	C345.791260,443.536346 404.005585,380.770569 420.750763,323.521759 
	C418.826355,323.521759 417.042633,323.513702 415.259003,323.523010 
	C396.928619,323.618835 378.597351,323.648865 360.268646,323.881012 
	C357.110931,323.920959 355.335510,322.761108 353.198059,320.447205 
	C349.328491,316.258209 345.219360,311.159271 340.176971,309.397400 
	C325.166901,304.152710 309.662506,306.127991 300.216522,322.185913 
	C299.299652,323.744598 296.672119,324.899292 294.710327,325.124756 
	C289.431671,325.731384 284.062408,325.518921 278.769287,326.039856 
	C274.144196,326.495056 271.136292,330.693237 270.859650,336.040894 
	C270.608215,340.901215 273.642761,343.192749 277.664337,343.834381 
	C282.723602,344.641510 287.918488,344.935303 293.045929,344.858093 
	C296.351746,344.808289 297.994904,345.793671 299.523315,348.794312 
	C309.660645,368.696381 333.459564,372.675659 350.385529,356.863586 
M98.577560,210.464569 
	C105.535805,209.498947 109.969406,211.588562 114.213028,218.153778 
	C124.403786,233.919662 149.422913,236.211121 160.204666,221.568863 
	C167.771286,211.292999 175.995102,208.905655 187.325607,209.892746 
	C193.305954,210.413742 197.374496,206.343002 197.872589,200.922028 
	C198.351868,195.705994 195.142303,192.150345 188.641922,191.270187 
	C184.695267,190.735809 180.597992,190.188354 176.700317,190.684113 
	C170.997284,191.409470 167.798996,189.683502 165.039902,184.408142 
	C160.715790,176.140503 153.227768,171.367493 143.862961,170.258987 
	C129.110001,168.512695 118.620834,175.349945 110.738998,187.230392 
	C109.788528,188.663055 108.347496,190.786514 107.076378,190.827957 
	C97.679794,191.134293 88.268654,190.993774 77.952866,190.993774 
	C79.032631,188.385147 79.579247,186.697586 80.393532,185.150955 
	C100.974190,146.060776 130.214310,116.730148 173.160583,102.808502 
	C174.737091,102.297462 177.265656,100.970924 177.278015,99.998047 
	C177.356705,93.814270 176.852234,87.623070 176.537262,81.381470 
	C124.273331,87.692924 54.588207,157.534912 47.657261,210.453430 
	C64.412643,210.453430 81.016479,210.453430 98.577560,210.464569 
M51.035210,332.459198 
	C71.205811,392.630493 129.572937,445.245544 177.727844,451.240997 
	C177.727844,449.582245 177.802933,447.945953 177.716614,446.318237 
	C176.367737,420.885437 175.070908,395.449402 173.554016,370.026550 
	C173.328384,366.244873 174.286407,364.059509 177.631638,361.970367 
	C190.339706,354.033997 194.978775,337.500732 188.198257,323.697144 
	C180.843124,308.723816 166.544815,304.291840 151.970795,307.894043 
	C138.515869,311.219604 130.417572,322.333588 129.867401,335.541870 
	C129.274368,349.779205 135.528870,359.366974 149.310242,364.799469 
	C152.189621,365.934479 153.403061,367.360596 153.536865,370.525421 
	C154.162842,385.330170 155.060379,400.123291 155.816238,414.922852 
	C155.937698,417.301056 155.833282,419.690826 155.833282,422.851715 
	C153.267303,421.634583 151.428757,420.939789 149.767899,419.947540 
	C131.167282,408.834930 114.824394,395.122009 101.032196,378.318909 
	C86.925354,361.132538 75.971634,342.288300 69.227814,321.042938 
	C68.854668,319.867401 67.573143,318.150116 66.654770,318.111694 
	C60.436325,317.851685 54.201817,317.975922 47.102142,317.975922 
	C48.584351,323.427795 49.707359,327.558472 51.035210,332.459198 
z"/>
<path fill="#FDFDFD" opacity="1.000000" stroke="none" 
	d="
M674.048340,287.057373 
	C665.692566,328.420197 636.376282,356.155151 593.150757,361.975494 
	C574.083923,364.542847 554.657959,364.701935 535.374756,365.325073 
	C519.431274,365.840302 503.457916,365.430389 487.127380,365.430389 
	C487.127380,292.523895 487.127380,220.500076 487.127380,148.073792 
	C488.260895,147.941574 489.506622,147.667435 490.751801,147.670013 
	C517.235352,147.724594 543.720825,147.636841 570.201660,147.947464 
	C589.669861,148.175812 608.776062,150.614502 626.267395,160.125031 
	C649.289429,172.642746 663.910828,191.778961 671.102417,216.870102 
	C677.705627,239.908432 678.004211,263.166046 674.048340,287.057373 
M529.402222,218.499756 
	C529.402222,254.395599 529.402222,290.291443 529.402222,326.567841 
	C551.045715,326.715820 572.030273,328.399567 592.612061,322.853241 
	C615.149597,316.779938 628.358826,301.746643 633.050293,279.308960 
	C636.687134,261.914978 635.607605,244.545685 630.090881,227.585510 
	C622.917542,205.532486 608.437073,191.204208 585.354431,186.663788 
	C578.371643,185.290237 571.148499,184.808380 564.015686,184.602203 
	C552.604187,184.272369 541.176270,184.513901 529.402222,184.513901 
	C529.402222,195.916702 529.402222,206.708221 529.402222,218.499756 
z"/>
<path fill="#0089E5" opacity="1.000000" stroke="none" 
	d="
M84.691849,245.326721 
	C86.489182,247.749817 88.656609,249.697647 89.482895,252.105682 
	C91.027565,256.607269 93.825012,257.311066 98.176849,257.283539 
	C128.336380,257.092590 158.497772,257.197876 188.658569,257.208008 
	C190.471588,257.208618 192.284607,257.208099 192.997269,257.208099 
	C195.332001,250.564331 195.946136,243.164398 199.943863,239.060715 
	C203.795486,235.106995 211.142960,234.558868 216.954559,232.514526 
	C217.193298,232.939926 217.432053,233.365341 217.670807,233.790756 
	C217.845703,233.026215 218.173401,232.261703 218.173553,231.497131 
	C218.179733,198.003265 218.097717,164.509186 218.219864,131.015839 
	C218.233658,127.233322 217.109589,125.154495 213.795624,123.116020 
	C201.153625,115.339767 195.813843,100.524536 200.155991,86.701744 
	C203.883774,74.834679 217.597412,65.532349 230.769623,65.935692 
	C245.855865,66.397644 256.956848,75.441498 260.450775,90.116623 
	C263.775696,104.081863 256.915344,117.753090 243.416687,123.691261 
	C240.604019,124.928589 238.853928,126.092896 238.891174,129.733170 
	C239.233780,163.222260 239.353760,196.713638 239.561539,230.204178 
	C239.568466,231.322327 239.818817,232.438965 240.043793,234.275406 
	C257.108612,231.977402 265.458496,239.783585 264.939392,257.232788 
	C267.338165,257.232788 269.116180,257.232452 270.894196,257.232849 
	C302.556335,257.239929 334.218872,257.175690 365.880096,257.348907 
	C369.629120,257.369415 371.354706,256.127838 372.990448,252.831543 
	C380.351776,237.997223 396.784210,231.348358 412.141754,236.633362 
	C426.195465,241.469650 435.144806,257.328522 431.934265,272.810211 
	C429.534912,284.380035 421.942444,292.231873 410.866150,295.456635 
	C399.045258,298.898163 387.694336,297.260590 378.738953,287.541809 
	C377.610474,286.317139 376.126495,285.192444 375.546936,283.728607 
	C372.950562,277.170715 367.813629,276.983307 361.785339,277.031372 
	C331.458099,277.273132 301.127930,277.143219 270.798767,277.143799 
	C269.014465,277.143829 267.230194,277.143799 265.538757,277.143799 
	C262.418396,297.887360 262.283203,298.013489 238.984894,301.305023 
	C238.984894,306.969727 238.977783,312.872742 238.986115,318.775787 
	C239.023987,345.604095 239.184952,372.433319 238.987015,399.259857 
	C238.955002,403.599884 240.319794,405.747131 244.164124,407.509308 
	C261.042938,415.246246 265.126953,436.200104 256.889191,449.568787 
	C246.954056,465.692078 225.949310,470.071228 211.266754,459.260071 
	C193.334534,446.056061 194.403229,420.946625 213.644821,408.830231 
	C217.087570,406.662323 218.237732,404.448181 218.213043,400.505280 
	C218.015778,369.010834 218.038971,337.515015 217.995102,306.019592 
	C217.992798,304.371887 217.994797,302.724182 217.994797,300.228333 
	C201.264725,301.882935 194.299896,293.356018 194.843292,277.397064 
	C192.986893,277.256592 191.550751,277.054474 190.114395,277.053009 
	C158.791489,277.020813 127.468285,277.069489 96.146072,276.913483 
	C92.716118,276.896393 90.771919,277.844330 89.147629,280.921356 
	C78.940033,300.258179 56.282124,300.365295 44.492523,292.232880 
	C28.910316,281.484314 25.410032,261.627350 36.646351,246.145111 
	C47.551266,231.119553 70.517975,230.597885 84.691849,245.326721 
M54.288486,276.343628 
	C55.021866,276.734680 55.734940,277.171204 56.491890,277.509491 
	C61.628540,279.805237 66.249725,278.769257 70.368141,275.175201 
	C74.225975,271.808533 75.618904,267.527222 74.250626,262.592834 
	C72.743439,257.157471 69.235977,253.716446 63.511719,252.776733 
	C58.447895,251.945450 53.063351,254.607559 50.538300,259.234772 
	C47.333416,265.107819 48.300743,270.221558 54.288486,276.343628 
M389.190125,269.721588 
	C390.121338,271.272491 390.846130,273.005188 392.022156,274.340515 
	C395.660339,278.471497 401.070801,279.687744 406.040222,277.728271 
	C411.262878,275.668915 414.340271,270.901581 414.108368,265.229614 
	C413.889008,259.864532 410.522430,255.316086 405.465240,253.573944 
	C398.219574,251.077896 386.669556,256.248383 389.190125,269.721588 
M219.296082,103.063103 
	C223.880310,108.729362 229.431046,110.618767 234.962814,108.395889 
	C239.744247,106.474525 243.146744,100.595734 242.559616,95.526344 
	C241.914597,89.957146 238.869675,86.249588 233.680801,84.593201 
	C228.837997,83.047272 224.259354,84.329071 220.907532,88.061615 
	C217.164673,92.229622 216.294571,97.167824 219.296082,103.063103 
M227.257217,422.427124 
	C221.824646,423.807983 218.735336,427.358643 217.900314,432.819275 
	C217.196716,437.420410 218.497055,441.404083 222.258499,444.319275 
	C226.877243,447.899017 232.996933,447.966278 237.578217,444.617981 
	C241.903427,441.456757 243.635376,435.648041 241.829056,430.361267 
	C239.886490,424.675751 235.155533,421.892090 227.257217,422.427124 
z"/>
<path fill="#FCFCFC" opacity="1.000000" stroke="none" 
	d="
M691.259766,304.693420 
	C688.597839,286.617706 688.667114,269.121094 694.107605,251.917328 
	C702.642639,224.927750 720.373779,207.505844 748.120483,201.265717 
	C772.554688,195.770554 795.926453,197.970642 816.312866,214.188675 
	C831.266541,226.084778 839.807007,241.738190 840.874634,260.876434 
	C841.521362,272.469421 840.993713,284.127930 840.993713,296.218140 
	C803.907776,296.218140 767.178711,296.218140 730.429260,296.218140 
	C731.202820,311.346283 744.634399,333.669067 767.401978,334.772644 
	C783.611328,335.558350 798.671265,332.697968 809.300293,318.569946 
	C809.914673,317.753357 812.002136,317.201294 812.941406,317.604370 
	C821.786011,321.400085 830.529907,325.430420 839.885498,329.656219 
	C831.470276,343.678650 822.075867,356.530701 806.375000,362.020752 
	C772.089539,374.009155 739.697998,371.498383 711.795776,345.941315 
	C699.991882,335.129456 694.301697,320.664337 691.259766,304.693420 
M795.932068,241.643433 
	C786.138489,230.402695 768.392517,226.717041 753.275879,232.784195 
	C739.322571,238.384445 729.816956,252.564468 730.354126,267.168457 
	C755.219971,267.168457 780.091553,267.168457 804.977844,267.168457 
	C804.645813,260.486359 800.684692,248.229828 795.932068,241.643433 
z"/>
<path fill="#008AE6" opacity="1.000000" stroke="none" 
	d="
M1131.078857,282.939697 
	C1131.077393,285.883179 1131.077393,288.336243 1131.077393,291.282837 
	C1140.580200,291.282837 1149.495728,291.282837 1158.742188,291.282837 
	C1158.742188,301.334930 1158.742188,310.891144 1158.742188,320.958313 
	C1149.739136,320.958313 1140.826172,320.958313 1131.296143,320.958313 
	C1131.296143,334.978119 1131.296143,348.512299 1131.296143,362.229584 
	C1119.941406,362.229584 1109.213257,362.229584 1098.000000,362.229584 
	C1098.000000,348.435089 1098.000000,335.007568 1098.000000,321.180420 
	C1068.288208,321.180420 1039.059937,321.180420 1009.048706,321.180420 
	C1009.978516,309.949646 1006.869690,299.360199 1013.144897,288.526855 
	C1038.767944,244.292313 1063.614868,199.607101 1088.561279,154.983704 
	C1090.658691,151.231873 1092.925537,149.950302 1097.122681,150.063095 
	C1108.231201,150.361633 1119.352783,150.164291 1131.080444,150.164291 
	C1131.080444,194.615540 1131.080444,238.532394 1131.078857,282.939697 
M1077.500000,291.308197 
	C1084.247437,291.308197 1090.994751,291.308197 1097.765869,291.308197 
	C1097.765869,260.356384 1097.765869,230.224487 1097.765869,199.230682 
	C1081.393066,230.187378 1065.486450,260.262634 1049.066406,291.308563 
	C1059.216919,291.308563 1067.858398,291.308563 1077.500000,291.308197 
z"/>
<path fill="#FBFBFB" opacity="1.000000" stroke="none" 
	d="
M842.138977,201.362213 
	C855.030396,201.429947 867.530884,201.404358 880.022217,201.727997 
	C881.631470,201.769684 884.137085,203.283249 884.640076,204.684692 
	C897.972412,241.832260 911.097412,279.054230 924.248413,316.266785 
	C924.712402,317.579651 925.080505,318.926331 926.578186,320.391693 
	C927.348206,318.018127 928.079041,315.631012 928.894043,313.273010 
	C941.355164,277.221283 953.806274,241.166031 966.372253,205.150879 
	C966.878174,203.700897 968.474426,201.579483 969.597595,201.557449 
	C982.535583,201.303635 995.480469,201.395584 1008.912109,201.395584 
	C1008.522461,202.910400 1008.369812,203.853592 1008.041260,204.730896 
	C988.701294,256.369659 969.312805,307.990356 950.072937,359.666351 
	C948.833252,362.995972 947.348511,364.233337 943.703064,364.160736 
	C931.043579,363.908600 918.375183,363.992004 905.711975,364.120636 
	C903.021667,364.147949 901.647400,363.525269 900.606018,360.769135 
	C881.239502,309.512085 861.723694,258.311462 842.325134,207.066406 
	C841.672974,205.343597 841.918213,203.281113 842.138977,201.362213 
z"/>
<path fill="#008AE5" opacity="1.000000" stroke="none" 
	d="
M1254.912476,321.984589 
	C1249.245605,334.276764 1243.834717,346.274902 1238.119995,358.126465 
	C1237.263306,359.903320 1235.016968,362.166809 1233.356445,362.214508 
	C1221.232910,362.562714 1209.094604,362.402008 1196.139648,362.402008 
	C1224.353394,302.167023 1252.400879,242.287064 1280.679565,181.913345 
	C1278.669312,181.734589 1277.389526,181.523239 1276.109497,181.521194 
	C1243.128052,181.468475 1210.146729,181.427780 1177.165283,181.425339 
	C1175.027222,181.425171 1173.107422,181.591919 1173.125854,178.548431 
	C1173.181274,169.402069 1173.145752,160.255157 1173.145752,150.529205 
	C1174.893066,150.443558 1176.486328,150.297668 1178.079590,150.297211 
	C1223.559937,150.284073 1269.040527,150.329346 1314.520508,150.205856 
	C1318.381714,150.195374 1320.069214,151.142914 1319.665283,155.200165 
	C1319.402954,157.835373 1319.601929,160.529144 1319.738647,163.189240 
	C1320.303467,174.168945 1318.331299,184.341827 1313.530518,194.542542 
	C1293.673584,236.735199 1274.496460,279.247803 1254.912476,321.984589 
z"/>
<path fill="#0088E3" opacity="1.000000" stroke="none" 
	d="
M357.317627,146.693726 
	C339.702942,128.262314 315.813599,111.594261 304.226990,109.732452 
	C304.059204,110.469780 303.730682,111.229752 303.736664,111.987068 
	C303.882751,130.465546 304.136658,148.943604 304.176697,167.422150 
	C304.184357,170.965591 305.667358,172.685150 308.737061,174.174164 
	C323.763794,181.463257 329.862732,195.647583 324.673431,210.634613 
	C319.755432,224.838150 304.416504,233.469009 289.525208,230.411743 
	C273.583160,227.138763 262.962067,213.762329 264.152130,198.202957 
	C264.974915,187.445374 271.243134,180.099899 280.035400,174.804947 
	C283.097290,172.960983 283.777344,171.038956 283.735809,167.625244 
	C283.397583,139.809616 283.320251,111.990799 283.190399,84.172813 
	C283.186005,83.226868 283.465057,82.279594 283.607849,81.359314 
	C336.245331,83.736504 416.932861,163.829269 421.708588,218.887238 
	C415.249603,218.887238 408.814545,219.110123 402.420471,218.697540 
	C401.155029,218.615875 399.509766,216.279465 398.947479,214.666428 
	C390.948059,191.718018 378.620850,171.316574 362.948792,152.854889 
	C361.225983,150.825409 359.362152,148.915634 357.317627,146.693726 
M290.024292,190.150146 
	C284.022278,194.314102 282.113647,198.730957 283.866333,204.400497 
	C285.393066,209.339127 289.844208,212.787537 294.932434,212.973663 
	C300.269958,213.168915 304.836151,209.999374 306.631683,204.671570 
	C308.137512,200.203445 307.275085,196.045212 304.045807,192.669586 
	C300.345612,188.801727 295.765594,188.084290 290.024292,190.150146 
z"/>
<path fill="#0089E4" opacity="1.000000" stroke="none" 
	d="
M350.145721,357.129547 
	C333.459564,372.675659 309.660645,368.696381 299.523315,348.794312 
	C297.994904,345.793671 296.351746,344.808289 293.045929,344.858093 
	C287.918488,344.935303 282.723602,344.641510 277.664337,343.834381 
	C273.642761,343.192749 270.608215,340.901215 270.859650,336.040894 
	C271.136292,330.693237 274.144196,326.495056 278.769287,326.039856 
	C284.062408,325.518921 289.431671,325.731384 294.710327,325.124756 
	C296.672119,324.899292 299.299652,323.744598 300.216522,322.185913 
	C309.662506,306.127991 325.166901,304.152710 340.176971,309.397400 
	C345.219360,311.159271 349.328491,316.258209 353.198059,320.447205 
	C355.335510,322.761108 357.110931,323.920959 360.268646,323.881012 
	C378.597351,323.648865 396.928619,323.618835 415.259003,323.523010 
	C417.042633,323.513702 418.826355,323.521759 420.750763,323.521759 
	C404.005585,380.770569 345.791260,443.536346 283.087097,451.344757 
	C283.087097,445.310303 282.938080,439.346497 283.221161,433.403259 
	C283.273560,432.302277 284.896271,430.639740 286.084747,430.321564 
	C322.821625,420.486877 350.655396,398.187988 372.943512,368.237457 
	C377.904083,361.571503 382.110748,354.342377 386.611969,347.338776 
	C387.373749,346.153473 387.868011,344.796265 388.956451,342.545410 
	C378.802338,342.545410 369.535339,342.458374 360.275146,342.668793 
	C359.254730,342.691986 358.033539,344.265472 357.316986,345.383667 
	C354.906219,349.146057 352.681458,353.027618 350.145721,357.129547 
M333.515137,325.729645 
	C326.852661,323.011230 321.523682,324.054901 317.806641,328.806061 
	C314.247253,333.355713 314.001312,339.291321 317.270996,343.584717 
	C320.349792,347.627411 324.542816,349.637939 329.496094,348.674835 
	C334.346588,347.731689 337.963562,344.733032 339.207397,339.704803 
	C340.588348,334.122192 338.717590,329.582947 333.515137,325.729645 
z"/>
<path fill="#0088E3" opacity="1.000000" stroke="none" 
	d="
M98.098938,210.459000 
	C81.016479,210.453430 64.412643,210.453430 47.657261,210.453430 
	C54.588207,157.534912 124.273331,87.692924 176.537262,81.381470 
	C176.852234,87.623070 177.356705,93.814270 177.278015,99.998047 
	C177.265656,100.970924 174.737091,102.297462 173.160583,102.808502 
	C130.214310,116.730148 100.974190,146.060776 80.393532,185.150955 
	C79.579247,186.697586 79.032631,188.385147 77.952866,190.993774 
	C88.268654,190.993774 97.679794,191.134293 107.076378,190.827957 
	C108.347496,190.786514 109.788528,188.663055 110.738998,187.230392 
	C118.620834,175.349945 129.110001,168.512695 143.862961,170.258987 
	C153.227768,171.367493 160.715790,176.140503 165.039902,184.408142 
	C167.798996,189.683502 170.997284,191.409470 176.700317,190.684113 
	C180.597992,190.188354 184.695267,190.735809 188.641922,191.270187 
	C195.142303,192.150345 198.351868,195.705994 197.872589,200.922028 
	C197.374496,206.343002 193.305954,210.413742 187.325607,209.892746 
	C175.995102,208.905655 167.771286,211.292999 160.204666,221.568863 
	C149.422913,236.211121 124.403786,233.919662 114.213028,218.153778 
	C109.969406,211.588562 105.535805,209.498947 98.098938,210.459000 
M130.805374,209.714996 
	C135.144043,213.309601 139.980453,213.768997 144.727951,211.055405 
	C149.258560,208.465759 151.446884,204.179886 150.893051,198.871780 
	C150.350967,193.676331 147.147888,190.486923 142.397507,188.802994 
	C137.726501,187.147217 132.011185,189.074463 129.066620,193.130661 
	C125.628166,197.867126 126.032204,203.264221 130.805374,209.714996 
z"/>
<path fill="#0089E3" opacity="1.000000" stroke="none" 
	d="
M50.932789,332.074158 
	C49.707359,327.558472 48.584351,323.427795 47.102142,317.975922 
	C54.201817,317.975922 60.436325,317.851685 66.654770,318.111694 
	C67.573143,318.150116 68.854668,319.867401 69.227814,321.042938 
	C75.971634,342.288300 86.925354,361.132538 101.032196,378.318909 
	C114.824394,395.122009 131.167282,408.834930 149.767899,419.947540 
	C151.428757,420.939789 153.267303,421.634583 155.833282,422.851715 
	C155.833282,419.690826 155.937698,417.301056 155.816238,414.922852 
	C155.060379,400.123291 154.162842,385.330170 153.536865,370.525421 
	C153.403061,367.360596 152.189621,365.934479 149.310242,364.799469 
	C135.528870,359.366974 129.274368,349.779205 129.867401,335.541870 
	C130.417572,322.333588 138.515869,311.219604 151.970795,307.894043 
	C166.544815,304.291840 180.843124,308.723816 188.198257,323.697144 
	C194.978775,337.500732 190.339706,354.033997 177.631638,361.970367 
	C174.286407,364.059509 173.328384,366.244873 173.554016,370.026550 
	C175.070908,395.449402 176.367737,420.885437 177.716614,446.318237 
	C177.802933,447.945953 177.727844,449.582245 177.727844,451.240997 
	C129.572937,445.245544 71.205811,392.630493 50.932789,332.074158 
M149.371353,342.753937 
	C152.573517,347.318604 156.683044,350.038940 162.515244,349.000519 
	C166.975510,348.206390 170.063705,345.554901 171.700684,341.400055 
	C173.788086,336.102051 172.137238,330.511841 167.703018,327.089325 
	C163.270416,323.668060 157.282501,323.563599 152.827866,326.829803 
	C148.245926,330.189392 146.857361,335.735687 149.371353,342.753937 
z"/>
<path fill="#030303" opacity="1.000000" stroke="none" 
	d="
M529.402222,217.999756 
	C529.402222,206.708221 529.402222,195.916702 529.402222,184.513901 
	C541.176270,184.513901 552.604187,184.272369 564.015686,184.602203 
	C571.148499,184.808380 578.371643,185.290237 585.354431,186.663788 
	C608.437073,191.204208 622.917542,205.532486 630.090881,227.585510 
	C635.607605,244.545685 636.687134,261.914978 633.050293,279.308960 
	C628.358826,301.746643 615.149597,316.779938 592.612061,322.853241 
	C572.030273,328.399567 551.045715,326.715820 529.402222,326.567841 
	C529.402222,290.291443 529.402222,254.395599 529.402222,217.999756 
z"/>
<path fill="#000508" opacity="1.000000" stroke="none" 
	d="
M53.988907,276.118042 
	C48.300743,270.221558 47.333416,265.107819 50.538300,259.234772 
	C53.063351,254.607559 58.447895,251.945450 63.511719,252.776733 
	C69.235977,253.716446 72.743439,257.157471 74.250626,262.592834 
	C75.618904,267.527222 74.225975,271.808533 70.368141,275.175201 
	C66.249725,278.769257 61.628540,279.805237 56.491890,277.509491 
	C55.734940,277.171204 55.021866,276.734680 53.988907,276.118042 
z"/>
<path fill="#000508" opacity="1.000000" stroke="none" 
	d="
M389.105957,269.315826 
	C386.669556,256.248383 398.219574,251.077896 405.465240,253.573944 
	C410.522430,255.316086 413.889008,259.864532 414.108368,265.229614 
	C414.340271,270.901581 411.262878,275.668915 406.040222,277.728271 
	C401.070801,279.687744 395.660339,278.471497 392.022156,274.340515 
	C390.846130,273.005188 390.121338,271.272491 389.105957,269.315826 
z"/>
<path fill="#00060A" opacity="1.000000" stroke="none" 
	d="
M219.126328,102.729980 
	C216.294571,97.167824 217.164673,92.229622 220.907532,88.061615 
	C224.259354,84.329071 228.837997,83.047272 233.680801,84.593201 
	C238.869675,86.249588 241.914597,89.957146 242.559616,95.526344 
	C243.146744,100.595734 239.744247,106.474525 234.962814,108.395889 
	C229.431046,110.618767 223.880310,108.729362 219.126328,102.729980 
z"/>
<path fill="#000508" opacity="1.000000" stroke="none" 
	d="
M227.654266,422.340820 
	C235.155533,421.892090 239.886490,424.675751 241.829056,430.361267 
	C243.635376,435.648041 241.903427,441.456757 237.578217,444.617981 
	C232.996933,447.966278 226.877243,447.899017 222.258499,444.319275 
	C218.497055,441.404083 217.196716,437.420410 217.900314,432.819275 
	C218.735336,427.358643 221.824646,423.807983 227.654266,422.340820 
z"/>
<path fill="#030303" opacity="1.000000" stroke="none" 
	d="
M796.137390,241.943054 
	C800.684692,248.229828 804.645813,260.486359 804.977844,267.168457 
	C780.091553,267.168457 755.219971,267.168457 730.354126,267.168457 
	C729.816956,252.564468 739.322571,238.384445 753.275879,232.784195 
	C768.392517,226.717041 786.138489,230.402695 796.137390,241.943054 
z"/>
<path fill="#000203" opacity="1.000000" stroke="none" 
	d="
M1077.000000,291.308380 
	C1067.858398,291.308563 1059.216919,291.308563 1049.066406,291.308563 
	C1065.486450,260.262634 1081.393066,230.187378 1097.765869,199.230682 
	C1097.765869,230.224487 1097.765869,260.356384 1097.765869,291.308197 
	C1090.994751,291.308197 1084.247437,291.308197 1077.000000,291.308380 
z"/>
<path fill="#000509" opacity="1.000000" stroke="none" 
	d="
M290.394714,190.014969 
	C295.765594,188.084290 300.345612,188.801727 304.045807,192.669586 
	C307.275085,196.045212 308.137512,200.203445 306.631683,204.671570 
	C304.836151,209.999374 300.269958,213.168915 294.932434,212.973663 
	C289.844208,212.787537 285.393066,209.339127 283.866333,204.400497 
	C282.113647,198.730957 284.022278,194.314102 290.394714,190.014969 
z"/>
<path fill="#000508" opacity="1.000000" stroke="none" 
	d="
M333.844482,325.921478 
	C338.717590,329.582947 340.588348,334.122192 339.207397,339.704803 
	C337.963562,344.733032 334.346588,347.731689 329.496094,348.674835 
	C324.542816,349.637939 320.349792,347.627411 317.270996,343.584717 
	C314.001312,339.291321 314.247253,333.355713 317.806641,328.806061 
	C321.523682,324.054901 326.852661,323.011230 333.844482,325.921478 
z"/>
<path fill="#000509" opacity="1.000000" stroke="none" 
	d="
M130.536926,209.450348 
	C126.032204,203.264221 125.628166,197.867126 129.066620,193.130661 
	C132.011185,189.074463 137.726501,187.147217 142.397507,188.802994 
	C147.147888,190.486923 150.350967,193.676331 150.893051,198.871780 
	C151.446884,204.179886 149.258560,208.465759 144.727951,211.055405 
	C139.980453,213.768997 135.144043,213.309601 130.536926,209.450348 
z"/>
<path fill="#000407" opacity="1.000000" stroke="none" 
	d="
M149.193817,342.404266 
	C146.857361,335.735687 148.245926,330.189392 152.827866,326.829803 
	C157.282501,323.563599 163.270416,323.668060 167.703018,327.089325 
	C172.137238,330.511841 173.788086,336.102051 171.700684,341.400055 
	C170.063705,345.554901 166.975510,348.206390 162.515244,349.000519 
	C156.683044,350.038940 152.573517,347.318604 149.193817,342.404266 
z"/>
</svg>