<svg version="1.1" id="Layer_1" xmlns="http://www.w3.org/2000/svg" xmlns:xlink="http://www.w3.org/1999/xlink" x="0px" y="0px"
	 width="100%" viewBox="0 0 770 336" enable-background="new 0 0 770 336" xml:space="preserve">
<path fill="none" opacity="0" stroke="none" 
	d="
M463.000000,337.000000 
	C308.701416,337.000000 154.902847,337.000000 1.052141,337.000000 
	C1.052141,225.060089 1.052141,113.120148 1.052141,1.090102 
	C257.548584,1.090102 514.097168,1.090102 770.822876,1.090102 
	C770.822876,112.999779 770.822876,224.999863 770.822876,337.000000 
	C668.453491,337.000000 565.976746,337.000000 463.000000,337.000000 
M234.572815,247.968689 
	C234.739853,247.660400 234.906891,247.352112 235.000763,247.002609 
	C235.000763,247.002609 235.062866,247.059311 235.709503,246.882492 
	C236.166016,245.929291 236.622528,244.976074 237.010635,244.009628 
	C237.010635,244.009628 237.024246,244.077942 237.564529,243.961197 
	C237.735275,243.651581 237.906006,243.341965 238.009445,243.009338 
	C238.009445,243.009338 238.032822,243.076523 238.570297,242.962769 
	C238.738464,242.654572 238.906631,242.346390 239.000900,242.001801 
	C239.000900,242.001801 239.065643,242.052902 239.701950,241.850159 
	C239.748154,241.211349 239.794357,240.572540 240.173370,239.329025 
	C243.263870,234.524185 246.354385,229.719345 250.251465,224.984787 
	C252.512665,220.037430 254.773849,215.090073 257.727966,209.796097 
	C261.551025,201.272018 261.291656,191.968399 263.010437,182.227020 
	C262.955750,179.819977 262.901062,177.412933 262.983459,174.104248 
	C264.046906,165.910950 260.597809,158.914047 257.023468,151.144180 
	C255.403519,147.075302 253.783569,143.006439 252.031845,138.309952 
	C251.708038,137.854706 251.384216,137.399475 251.003052,137.000320 
	C251.003052,137.000320 251.072830,136.960495 251.023987,136.195755 
	C249.448318,131.642120 247.971085,127.018967 243.010254,124.149590 
	C236.243683,114.082191 227.854568,105.550423 218.028366,97.560158 
	C217.701187,97.352058 217.374023,97.143959 217.002899,96.996925 
	C217.002899,96.996925 217.067581,96.958504 216.859207,96.289406 
	C216.009598,95.528366 215.241684,94.642227 214.297607,94.025871 
	C205.971634,88.590057 196.808685,85.183998 186.845306,82.316048 
	C180.611572,77.711517 173.698868,75.850906 165.271515,76.786026 
	C160.169174,75.131943 155.067780,73.844673 149.126862,76.985428 
	C142.887909,75.576187 136.743057,75.046028 131.260391,79.297844 
	C129.370285,80.763634 127.623375,82.414093 125.031456,83.949135 
	C120.663521,85.942039 116.295578,87.934944 111.274834,90.184555 
	C99.914673,96.723183 89.586609,104.445091 81.441292,114.925476 
	C74.564583,123.773582 68.855148,133.213196 64.418800,144.075211 
	C64.249535,144.720901 64.080269,145.366592 63.988609,145.994217 
	C63.988609,145.994217 63.962147,145.919052 63.237068,146.247910 
	C61.706120,152.787872 58.918030,159.133118 59.796513,166.690384 
	C54.993744,171.046082 53.106384,176.421295 54.016426,183.657608 
	C56.975147,191.449753 59.933872,199.241898 62.983170,207.851273 
	C64.326714,211.633667 65.670265,215.416077 67.298248,219.853455 
	C69.915527,224.807785 72.532806,229.762131 74.988106,235.481354 
	C78.304665,239.673660 81.621231,243.865952 85.000000,248.000000 
	C85.000000,248.000000 84.937134,248.058456 84.961433,248.765030 
	C89.613045,253.341507 93.928406,258.336395 98.989258,262.403656 
	C108.288544,269.877136 118.989212,274.541107 131.281921,276.798004 
	C137.166962,278.217651 143.051987,279.637299 148.995178,281.008606 
	C148.995178,281.008606 148.952377,281.071136 149.224121,281.715454 
	C150.140350,281.867462 151.056580,282.019470 152.388229,282.919983 
	C156.997345,282.773529 161.866074,284.337097 166.819550,280.995270 
	C174.236389,279.030182 181.653229,277.065094 189.892975,275.044037 
	C195.354477,273.012207 200.815979,270.980377 206.888931,268.685547 
	C213.603485,263.831116 220.318024,258.976715 227.670624,253.994675 
	C228.134521,253.682541 228.598404,253.370422 229.003235,253.004135 
	C229.003235,253.004135 229.036743,253.076935 229.573380,252.959412 
	C229.741196,252.650711 229.909012,252.342026 230.009171,252.009430 
	C230.009171,252.009430 230.034378,252.076599 230.572006,251.959915 
	C230.739883,251.650803 230.907745,251.341675 231.008835,251.008835 
	C231.008835,251.008835 231.032562,251.075623 231.570999,250.960358 
	C231.739243,250.651108 231.907486,250.341873 232.008896,250.008911 
	C232.008896,250.008911 232.032471,250.075806 232.570908,249.960159 
	C232.739197,249.650864 232.907471,249.341568 233.008896,249.009003 
	C233.008896,249.009003 233.032059,249.075897 233.569077,248.959061 
	C233.738235,248.650772 233.907394,248.342499 234.009354,248.009033 
	C234.009354,248.009033 234.033966,248.076462 234.572815,247.968689 
M529.350525,225.846405 
	C529.606140,225.698364 529.779785,225.483963 530.039490,224.465744 
	C535.122620,210.270004 540.124268,196.044327 545.324524,181.891586 
	C547.796875,175.162918 550.686584,168.588623 553.312561,161.914993 
	C554.959473,157.729523 556.467590,153.489441 558.781738,148.825882 
	C559.667847,146.534805 558.760010,146.013306 556.495728,146.058243 
	C549.717957,146.192719 542.935852,146.106583 535.982483,146.106583 
	C536.041748,147.412750 536.093628,148.557022 535.990540,150.476364 
	C529.444641,169.550812 522.898804,188.625259 516.117065,208.387115 
	C515.219788,206.986023 514.739563,206.483688 514.539490,205.887360 
	C510.080078,192.594452 505.727631,179.265106 501.180237,166.002548 
	C499.325745,160.593903 497.061218,155.325851 494.971191,149.093948 
	C494.248138,148.063858 493.552795,146.163086 492.797729,146.139053 
	C485.651764,145.911667 478.495605,146.003662 470.322296,146.003662 
	C471.569519,147.941544 472.292023,149.064133 473.335602,150.813370 
	C483.199646,176.815628 493.063721,202.817886 503.095856,229.652267 
	C503.624603,230.038071 504.147888,230.751358 504.682953,230.760315 
	C512.148071,230.885300 519.614990,230.938110 527.080505,230.884354 
	C527.403625,230.882019 527.718079,229.682999 528.007690,229.004044 
	C528.007690,229.004044 528.050598,229.024094 528.785522,228.887024 
	C528.870178,227.915115 528.954773,226.943222 528.975769,225.982956 
	C528.975769,225.982956 528.979309,226.047623 529.350525,225.846405 
M697.979004,136.494598 
	C697.937561,136.656158 697.896179,136.817719 697.227173,137.301590 
	C688.455566,155.982407 679.657166,174.650726 670.922607,193.348831 
	C665.852173,204.202942 660.884216,215.104935 655.179321,226.327332 
	C654.694092,227.388474 654.208923,228.449615 653.269836,230.503342 
	C661.268005,229.969696 668.188721,229.507935 675.762878,228.783401 
	C676.202759,228.108093 676.734863,227.475311 677.069153,226.751236 
	C687.088745,205.049866 697.149719,183.367279 707.060791,161.616379 
	C710.861816,153.274658 714.313538,144.773727 718.703796,135.846695 
	C718.797241,131.209412 718.671875,126.553780 719.058838,121.941132 
	C719.329407,118.715630 717.590027,118.859245 715.507446,119.031845 
	C715.507446,119.031845 715.502869,119.076805 715.053955,118.501022 
	C714.535034,118.692802 714.016113,118.884583 713.487549,119.030502 
	C713.487549,119.030502 713.524841,119.058655 712.499512,119.020676 
	C689.124512,119.020676 665.749573,119.020676 641.986633,119.020676 
	C641.986633,121.481461 641.853699,123.605919 642.016846,125.707382 
	C642.280518,129.103760 642.739014,132.485016 644.020569,135.996414 
	C662.022156,136.023407 680.023804,136.050385 698.005859,135.984146 
	C698.005859,135.984146 697.911743,135.998840 697.979004,136.494598 
M603.983887,208.920547 
	C603.983887,215.883453 603.983887,222.846359 603.983887,229.983887 
	C608.590088,229.983887 613.561401,230.107544 618.517700,229.890579 
	C619.652954,229.840881 620.736877,228.618118 621.989807,227.016510 
	C621.989807,220.787521 621.989807,214.558533 621.989807,207.847961 
	C626.346436,207.847961 630.118042,207.847961 634.788513,208.026398 
	C635.516724,207.619431 636.861023,207.235764 636.877380,206.801880 
	C637.032898,202.691345 637.171448,198.553177 636.797791,194.470261 
	C636.713257,193.546524 634.673340,192.199890 633.444153,192.095062 
	C629.683350,191.774323 625.879089,191.963272 622.003540,191.026108 
	C622.003540,167.098190 622.003540,143.170288 622.003540,118.998871 
	C617.363647,118.998871 613.220459,118.860977 609.091431,119.043335 
	C605.894592,119.184525 602.715515,119.726410 599.112488,120.324455 
	C599.085938,120.792679 599.059387,121.260902 598.528625,122.068954 
	C598.401794,122.422699 598.274902,122.776443 598.001526,123.364494 
	C598.001526,123.364494 598.088318,123.626854 597.454529,124.010460 
	C597.217529,124.688065 596.980591,125.365669 596.143188,126.378075 
	C589.966003,137.850891 583.872375,149.369736 577.587585,160.783325 
	C571.507324,171.825348 565.230286,182.759033 558.290039,194.136429 
	C557.879822,198.135437 557.337402,202.130066 557.204590,206.138260 
	C557.185120,206.726593 559.093140,207.878204 560.141296,207.917557 
	C565.130798,208.104858 570.131348,207.987137 575.127930,207.997665 
	C584.761353,208.017960 594.394714,208.051498 604.020447,207.982208 
	C604.020447,207.982208 603.922791,207.981689 603.983887,208.920547 
M289.031403,119.690865 
	C289.025208,122.520241 289.013733,125.349625 289.013611,128.179001 
	C289.012390,162.265244 289.012787,196.351501 289.012787,230.990051 
	C294.317291,230.990051 299.432190,230.984314 304.547089,230.991348 
	C313.195770,231.003265 321.844849,231.071823 330.492676,230.993301 
	C331.980469,230.979797 333.462677,230.354980 335.759277,230.015671 
	C342.813171,228.665176 350.078156,227.977295 356.872681,225.812683 
	C367.729279,222.353943 376.416565,215.649536 381.445557,205.080933 
	C387.905151,191.506042 389.719482,177.246796 386.984985,162.455185 
	C385.096222,152.238342 381.641449,142.842850 374.514465,134.824142 
	C364.691193,123.771812 351.775818,120.085236 337.268219,117.968323 
	C337.032043,117.950005 336.795837,117.931694 336.463165,117.935486 
	C336.463165,117.935486 336.464844,118.034462 335.885406,117.314705 
	C320.937561,117.211014 305.989685,117.085075 291.041840,117.084785 
	C290.442719,117.084770 289.843597,118.275696 289.031403,119.690865 
M472.986877,186.246307 
	C473.005402,184.581024 472.959229,182.912109 473.052551,181.251022 
	C473.892731,166.295746 462.898956,152.593414 449.214935,146.711258 
	C442.503632,143.826355 435.965912,144.898010 429.329285,144.979584 
	C415.126709,145.154099 401.286102,156.553726 397.325500,169.067383 
	C394.112732,179.218140 393.968658,189.628387 395.258789,199.896683 
	C396.322968,208.367004 400.087555,216.429031 406.707489,221.998596 
	C413.886658,228.038635 422.368958,231.965668 432.209137,232.012451 
	C444.868073,232.072617 456.996521,231.303101 466.179504,220.558945 
	C472.858582,212.744400 473.096893,212.415787 464.111359,208.093781 
	C463.816803,207.952118 463.409760,208.003525 463.156525,207.822861 
	C458.614777,204.582687 455.168549,205.904160 451.515778,209.758270 
	C445.895538,215.688278 438.343475,216.956436 430.999298,214.642303 
	C422.689484,212.023880 417.024475,206.122742 416.071136,196.057663 
	C417.245789,195.724396 418.415649,195.123947 419.595856,195.102890 
	C425.557739,194.996597 431.522278,195.035797 437.485901,195.033844 
	C449.198273,195.030014 460.910614,195.032715 472.874908,195.032715 
	C472.874908,192.096161 472.874908,189.642456 472.986877,186.246307 
z"/>
<path fill="#141619" opacity="1.000000" stroke="none" 
	d="
M337.977722,118.010040 
	C351.775818,120.085236 364.691193,123.771812 374.514465,134.824142 
	C381.641449,142.842850 385.096222,152.238342 386.984985,162.455185 
	C389.719482,177.246796 387.905151,191.506042 381.445557,205.080933 
	C376.416565,215.649536 367.729279,222.353943 356.872681,225.812683 
	C350.078156,227.977295 342.813171,228.665176 334.887939,229.983459 
	C319.578522,229.951248 305.140472,229.951248 290.125946,229.951248 
	C290.125946,227.313599 290.128296,225.361557 290.125549,223.409500 
	C290.076599,188.601334 290.027039,153.793182 290.407043,118.812935 
	C295.309998,118.578758 299.783478,118.514107 304.256989,118.455093 
	C314.992950,118.313477 325.728882,118.174500 336.464844,118.034454 
	C336.464844,118.034462 336.463165,117.935486 336.485962,118.287361 
	C336.998413,118.429504 337.488068,118.219772 337.977722,118.010040 
M311.732269,140.725220 
	C311.808624,162.221985 311.885010,183.718765 312.080414,206.052765 
	C312.214447,207.622025 312.348480,209.191284 312.538300,211.413742 
	C321.694275,210.904388 330.371704,211.146698 338.791382,209.789658 
	C352.724670,207.543945 362.577240,199.770447 365.193207,185.270462 
	C366.748322,176.650543 366.333832,168.126816 363.431305,159.383209 
	C359.800812,148.446747 352.592712,141.519684 342.264008,139.296921 
	C332.802887,137.260849 322.720703,138.094894 312.908447,137.782440 
	C312.614075,137.773056 312.277527,139.086761 311.732269,140.725220 
z"/>
<path fill="#0B91EA" opacity="1.000000" stroke="none" 
	d="
M54.154961,182.823181 
	C53.106384,176.421295 54.993744,171.046082 60.345055,166.366699 
	C72.059967,160.919754 78.416077,162.694733 85.782448,172.643967 
	C86.664009,173.834625 88.732574,174.749008 90.261406,174.764572 
	C105.409447,174.918808 120.560257,174.788879 135.708847,174.912888 
	C138.710510,174.937454 139.444534,173.805038 140.106644,171.001938 
	C140.716782,168.418869 142.502609,165.714355 144.553711,164.000763 
	C146.114273,162.697006 148.902206,162.862427 151.058502,162.392822 
	C151.281860,161.978546 151.570877,161.692352 151.571579,161.405457 
	C151.614426,144.103928 151.688141,126.801910 151.545929,109.501686 
	C151.535156,108.191757 150.246735,106.543785 149.091354,105.646126 
	C138.418167,97.353722 138.809311,85.656189 150.527817,78.176773 
	C155.913086,78.177002 160.885849,78.208977 166.077347,78.491806 
	C176.628799,86.650345 176.085205,98.654129 165.203598,105.938278 
	C163.906326,106.806679 162.457626,108.657394 162.450180,110.060066 
	C162.360245,127.006256 162.528336,143.953827 162.487549,161.189209 
	C162.919876,161.879974 163.493912,162.282562 164.468292,162.788498 
	C172.434143,163.411209 173.464142,164.453873 175.368622,171.618576 
	C175.720840,172.943619 177.867706,174.697708 179.207245,174.715973 
	C195.023315,174.931717 210.844009,174.916641 226.661331,174.753159 
	C228.146622,174.737808 230.233643,173.681442 230.988068,172.458633 
	C234.277756,167.126587 238.818436,163.965195 245.156158,163.226929 
	C245.890244,163.278870 246.453445,163.177124 247.373260,163.175049 
	C254.566818,164.476044 259.133209,168.383179 261.437988,175.241150 
	C261.447388,178.132095 261.559143,180.645401 261.490906,183.484711 
	C258.083801,192.050018 252.985245,195.189606 242.777969,194.882233 
	C242.010056,194.640274 241.443054,194.615341 240.563995,194.399750 
	C237.656799,192.229965 234.628265,190.611572 232.593033,188.166428 
	C230.700180,185.892319 229.002213,184.838272 226.005569,184.888245 
	C212.876221,185.107101 199.742630,185.074570 186.610550,185.126221 
	C183.166687,185.139771 179.722717,185.128265 176.049698,185.128265 
	C175.551147,190.896622 174.165924,195.576065 167.864990,196.685852 
	C167.075165,196.720520 166.545990,196.897354 165.611877,197.040863 
	C164.246567,198.211868 162.464340,199.406799 162.450409,200.621994 
	C162.273087,216.103226 162.288071,231.588043 162.456238,247.069733 
	C162.473038,248.616287 163.403046,250.927216 164.605835,251.560684 
	C172.285995,255.605438 174.284592,262.038605 172.914124,270.215637 
	C172.596405,270.967377 172.516769,271.536926 172.244904,272.399872 
	C169.954437,275.009827 167.856186,277.326416 165.349304,279.694824 
	C160.635849,280.144287 156.331039,280.541931 151.613419,280.741699 
	C150.451187,280.719574 149.701782,280.895355 148.952377,281.071136 
	C148.952377,281.071136 148.995178,281.008606 149.295258,280.781769 
	C144.273254,275.747345 140.441208,270.273651 141.784637,262.378967 
	C142.173508,261.411163 142.339676,260.650116 142.716217,259.605469 
	C144.926208,257.126465 147.053772,255.031128 148.877792,252.698395 
	C149.986572,251.280365 151.351685,249.501801 151.364899,247.875122 
	C151.492035,232.217636 151.307129,216.557907 151.342438,200.899109 
	C151.348465,198.222977 150.547897,197.069336 147.767563,196.754944 
	C143.371201,196.257797 140.103378,193.982941 140.020920,189.145767 
	C139.958054,185.458054 138.205887,184.875305 134.996353,184.905472 
	C120.338448,185.043335 105.677200,185.066391 91.020294,184.881653 
	C87.802338,184.841110 86.017464,185.895935 84.152390,188.502594 
	C76.801224,198.776688 62.350609,197.548187 56.541866,186.386108 
	C55.885983,185.125732 54.957199,184.007385 54.154961,182.823181 
M77.630066,180.112595 
	C77.071602,174.308762 73.270187,170.795303 69.201736,172.942780 
	C67.098366,174.053040 64.575775,177.152863 64.767212,179.106354 
	C64.994949,181.430115 67.520859,184.508926 69.792038,185.426682 
	C73.366142,186.870926 75.947609,184.202316 77.630066,180.112595 
M245.535690,172.752045 
	C240.434021,174.109924 237.766724,177.471176 239.842377,180.970657 
	C241.106247,183.101471 244.350113,185.485748 246.466965,185.282425 
	C248.596802,185.077835 251.590759,182.088760 252.138168,179.820740 
	C253.069626,175.961365 250.383041,173.410477 245.535690,172.752045 
M162.615158,269.849274 
	C165.205750,264.463623 162.531036,258.869629 157.510742,259.787506 
	C155.335861,260.185150 152.477951,262.322418 151.873154,264.272156 
	C151.283875,266.171906 152.552719,269.471069 154.124146,271.024353 
	C156.455704,273.328949 159.612747,272.930542 162.615158,269.849274 
M162.800140,96.074966 
	C165.076263,90.323700 162.913605,85.515564 157.896790,86.061935 
	C155.691315,86.302132 152.656021,88.248856 151.935745,90.153671 
	C151.228424,92.024185 152.309784,95.429077 153.801804,97.080154 
	C156.287704,99.831024 159.542633,98.933983 162.800140,96.074966 
z"/>
<path fill="#F9FCFE" opacity="1.000000" stroke="none" 
	d="
M168.125626,196.828003 
	C174.165924,195.576065 175.551147,190.896622 176.049698,185.128265 
	C179.722717,185.128265 183.166687,185.139771 186.610550,185.126221 
	C199.742630,185.074570 212.876221,185.107101 226.005569,184.888245 
	C229.002213,184.838272 230.700180,185.892319 232.593033,188.166428 
	C234.628265,190.611572 237.656799,192.229965 240.645859,194.634689 
	C241.686172,195.073273 242.332535,195.086258 242.978897,195.099243 
	C252.985245,195.189606 258.083801,192.050018 261.686920,183.469055 
	C262.317841,183.055145 262.577728,183.016174 262.842621,183.010468 
	C261.291656,191.968399 261.551025,201.272018 257.239624,209.703461 
	C256.222473,209.379135 255.693619,209.147461 254.685822,208.918762 
	C245.224182,208.969604 236.238510,208.900162 227.260483,209.129868 
	C224.172256,209.208847 222.130844,208.348923 220.075607,205.902649 
	C214.743408,199.555954 204.934158,197.769424 199.112106,202.948669 
	C194.150467,207.362549 189.788116,211.266586 182.562195,210.442032 
	C181.520309,210.323151 179.401123,213.554840 179.084045,215.453659 
	C178.893204,216.596558 180.975815,218.761108 182.483734,219.383316 
	C184.371887,220.162384 186.789948,219.547058 188.845215,220.065308 
	C190.560104,220.497711 192.671585,221.287125 193.596481,222.619965 
	C201.596008,234.147568 215.181442,233.823257 222.370819,221.833221 
	C223.072327,220.663269 224.270523,219.057068 225.342148,218.972641 
	C229.554688,218.640732 233.808823,218.836731 238.047516,218.836731 
	C238.376282,219.299698 238.705063,219.762665 239.033844,220.225632 
	C235.072708,225.820480 231.465302,231.711487 227.079300,236.950653 
	C216.868271,249.147903 204.621872,258.590546 188.791718,262.738007 
	C187.337799,263.329193 186.086807,264.149841 184.870972,265.415741 
	C184.921448,268.243530 184.936768,270.626068 184.745850,273.151550 
	C184.988556,273.681641 185.437515,274.068817 186.272339,274.382812 
	C187.439011,274.224945 188.219772,274.140259 188.987213,274.318726 
	C189.005920,274.754578 189.037994,274.927307 189.070068,275.100006 
	C181.653229,277.065094 174.236389,279.030182 166.360809,280.619629 
	C165.854034,280.043640 165.806000,279.843323 165.757950,279.643005 
	C167.856186,277.326416 169.954437,275.009827 172.494751,272.340942 
	C173.008621,271.336945 173.080414,270.685242 173.152206,270.033508 
	C174.284592,262.038605 172.285995,255.605438 164.605835,251.560684 
	C163.403046,250.927216 162.473038,248.616287 162.456238,247.069733 
	C162.288071,231.588043 162.273087,216.103226 162.450409,200.621994 
	C162.464340,199.406799 164.246567,198.211868 165.735443,197.244827 
	C166.884491,197.264084 167.505066,197.046051 168.125626,196.828003 
z"/>
<path fill="#F8FCFE" opacity="1.000000" stroke="none" 
	d="
M162.629242,160.901031 
	C162.528336,143.953827 162.360245,127.006256 162.450180,110.060066 
	C162.457626,108.657394 163.906326,106.806679 165.203598,105.938278 
	C176.085205,98.654129 176.628799,86.650345 166.129852,78.223297 
	C165.976501,77.522072 165.989349,77.340218 166.002197,77.158363 
	C173.698868,75.850906 180.611572,77.711517 186.663483,82.697083 
	C185.995834,83.733047 185.510025,84.387985 185.044785,85.508530 
	C185.046494,100.315460 185.027634,114.656776 184.750961,129.191772 
	C184.313538,130.216904 184.133926,131.048370 183.700500,132.101318 
	C180.972900,135.156433 177.699005,137.622131 176.191772,140.900146 
	C173.043350,147.747498 177.051895,156.211594 184.236191,159.593704 
	C192.189163,163.337677 201.134354,160.525146 205.341217,152.957886 
	C209.220871,145.979233 207.112762,137.805649 200.349258,133.225281 
	C198.782578,132.164291 196.209702,130.835068 196.165543,129.557846 
	C195.818130,119.510818 195.972763,109.446426 195.972763,97.754272 
	C202.514908,101.881104 208.289078,104.831764 213.259918,108.791023 
	C227.230942,119.918900 237.087189,134.172195 243.586304,150.789413 
	C245.057693,154.551575 252.262253,156.916214 255.545029,154.696899 
	C256.052612,154.353760 255.828888,152.928925 256.234528,152.000122 
	C256.718536,151.973602 256.911407,151.951263 257.104248,151.928940 
	C260.597809,158.914047 264.046906,165.910950 262.696198,174.535599 
	C262.124176,174.892487 261.834625,174.858002 261.540344,174.863510 
	C259.133209,168.383179 254.566818,164.476044 247.231079,162.939301 
	C246.149933,162.760345 245.567612,162.916794 244.985275,163.073257 
	C238.818436,163.965195 234.277756,167.126587 230.988068,172.458633 
	C230.233643,173.681442 228.146622,174.737808 226.661331,174.753159 
	C210.844009,174.916641 195.023315,174.931717 179.207245,174.715973 
	C177.867706,174.697708 175.720840,172.943619 175.368622,171.618576 
	C173.464142,164.453873 172.434143,163.411209 164.435730,162.541718 
	C163.544968,161.761398 163.087097,161.331223 162.629242,160.901031 
z"/>
<path fill="#F7FBFE" opacity="1.000000" stroke="none" 
	d="
M150.115326,78.208511 
	C138.809311,85.656189 138.418167,97.353722 149.091354,105.646126 
	C150.246735,106.543785 151.535156,108.191757 151.545929,109.501686 
	C151.688141,126.801910 151.614426,144.103928 151.571579,161.405457 
	C151.570877,161.692352 151.281860,161.978546 151.058502,162.392822 
	C148.902206,162.862427 146.114273,162.697006 144.553711,164.000763 
	C142.502609,165.714355 140.716782,168.418869 140.106644,171.001938 
	C139.444534,173.805038 138.710510,174.937454 135.708847,174.912888 
	C120.560257,174.788879 105.409447,174.918808 90.261406,174.764572 
	C88.732574,174.749008 86.664009,173.834625 85.782448,172.643967 
	C78.416077,162.694733 72.059967,160.919754 60.527687,166.072937 
	C58.918030,159.133118 61.706120,152.787872 63.796513,146.482086 
	C63.680199,149.253540 64.497192,150.319016 67.273575,150.334351 
	C75.099586,150.377533 82.924622,150.780716 90.749435,150.763596 
	C93.846397,150.756836 95.819267,151.514008 97.660751,154.305023 
	C102.338203,161.394287 114.236122,164.053970 119.668121,158.572754 
	C124.639534,153.556290 128.995438,149.238068 136.779816,150.236343 
	C137.939987,150.385117 140.214127,147.014725 140.697968,144.970596 
	C140.921539,144.026138 138.278488,141.711548 136.570374,141.171188 
	C134.279251,140.446411 131.583908,141.109329 129.160187,140.654160 
	C127.613609,140.363724 125.713531,139.488785 124.878944,138.259933 
	C117.462601,127.340034 105.023140,127.033257 97.182983,137.656586 
	C96.264580,138.901001 94.892830,140.549103 93.616661,140.657196 
	C89.226486,141.029037 84.785431,140.800125 80.363762,140.800125 
	C79.965050,140.308151 79.566345,139.816177 79.167633,139.324203 
	C83.979118,132.501129 88.335266,125.293205 93.704079,118.941200 
	C102.754150,108.233788 113.593628,99.750435 127.465248,95.954491 
	C131.498474,94.850800 130.475494,91.630417 130.310989,89.003304 
	C130.204269,87.299332 131.537872,84.101387 127.123405,84.466461 
	C126.407097,84.164513 126.109070,84.072350 125.811050,83.980194 
	C127.623375,82.414093 129.370285,80.763634 131.260391,79.297844 
	C136.743057,75.046028 142.887909,75.576187 149.582520,77.251633 
	C150.063889,77.748055 150.089600,77.978279 150.115326,78.208511 
z"/>
<path fill="#131518" opacity="1.000000" stroke="none" 
	d="
M415.921631,196.872391 
	C417.024475,206.122742 422.689484,212.023880 430.999298,214.642303 
	C438.343475,216.956436 445.895538,215.688278 451.515778,209.758270 
	C455.168549,205.904160 458.614777,204.582687 463.156525,207.822861 
	C463.409760,208.003525 463.816803,207.952118 464.111359,208.093781 
	C473.096893,212.415787 472.858582,212.744400 466.179504,220.558945 
	C456.996521,231.303101 444.868073,232.072617 432.209137,232.012451 
	C422.368958,231.965668 413.886658,228.038635 406.707489,221.998596 
	C400.087555,216.429031 396.322968,208.367004 395.258789,199.896683 
	C393.968658,189.628387 394.112732,179.218140 397.325500,169.067383 
	C401.286102,156.553726 415.126709,145.154099 429.329285,144.979584 
	C435.965912,144.898010 442.503632,143.826355 449.214935,146.711258 
	C462.898956,152.593414 473.892731,166.295746 473.052551,181.251022 
	C472.959229,182.912109 473.005402,184.581024 472.561340,186.756073 
	C471.553284,189.383850 470.970703,191.501862 470.286011,193.991272 
	C453.833221,193.991272 437.367920,193.988480 420.902618,193.995560 
	C419.238525,193.996277 417.484497,193.733261 415.931427,194.165115 
	C413.614716,194.809311 413.197174,195.955719 415.921631,196.872391 
M414.974457,180.028214 
	C414.974457,180.028214 414.963989,179.965195 415.517609,180.605209 
	C427.784302,180.703674 440.050934,180.814453 452.317841,180.861084 
	C452.879639,180.863220 453.443573,180.288101 453.958893,179.207565 
	C450.276733,165.204971 446.197937,161.993637 433.473083,160.541519 
	C426.771606,159.776779 414.599823,170.062469 415.247375,177.173401 
	C415.177704,178.125183 415.108032,179.076950 414.974457,180.028214 
z"/>
<path fill="#F9FCFF" opacity="1.000000" stroke="none" 
	d="
M54.085693,183.240387 
	C54.957199,184.007385 55.885983,185.125732 56.541866,186.386108 
	C62.350609,197.548187 76.801224,198.776688 84.152390,188.502594 
	C86.017464,185.895935 87.802338,184.841110 91.020294,184.881653 
	C105.677200,185.066391 120.338448,185.043335 134.996353,184.905472 
	C138.205887,184.875305 139.958054,185.458054 140.020920,189.145767 
	C140.103378,193.982941 143.371201,196.257797 147.767563,196.754944 
	C150.547897,197.069336 151.348465,198.222977 151.342438,200.899109 
	C151.307129,216.557907 151.492035,232.217636 151.364899,247.875122 
	C151.351685,249.501801 149.986572,251.280365 148.877792,252.698395 
	C147.053772,255.031128 144.926208,257.126465 142.409622,259.739380 
	C141.782410,260.966492 141.672180,261.776123 141.561935,262.585724 
	C140.441208,270.273651 144.273254,275.747345 149.266174,280.805969 
	C143.051987,279.637299 137.166962,278.217651 131.258759,276.106384 
	C131.042862,273.242889 130.850113,271.070984 130.538940,268.462952 
	C130.294632,264.681030 130.168747,261.335236 130.290863,257.793762 
	C130.252106,256.364410 129.965332,255.130707 129.552399,253.455048 
	C129.302261,248.337524 129.178284,243.661957 129.325989,238.730362 
	C129.309616,236.631821 129.021561,234.789307 128.667053,232.570190 
	C129.213165,231.115845 129.770172,230.001678 130.448288,228.966904 
	C132.831116,225.330872 135.255600,221.722137 137.947052,217.959015 
	C137.993896,216.178452 137.757965,214.541916 137.378326,212.558167 
	C135.829880,206.110977 131.752914,202.562225 125.942108,200.204041 
	C123.169281,200.083740 120.539352,200.291748 117.582985,200.665451 
	C110.733505,203.189056 106.543633,207.651321 106.073929,214.671768 
	C105.671059,220.693359 107.775352,226.180145 113.533691,228.723389 
	C117.515755,230.482101 118.444633,232.896790 118.373032,236.733871 
	C118.305077,240.375824 118.848312,244.024811 118.959282,247.675674 
	C119.071777,251.376541 118.984100,255.083481 118.984100,258.997223 
	C117.981384,258.756897 117.465347,258.743256 117.068184,258.519043 
	C115.333038,257.539429 113.575836,256.582336 111.927971,255.467331 
	C95.356575,244.254608 83.171638,229.462662 76.167664,210.674255 
	C74.751007,206.874039 72.977730,205.177536 68.975754,206.008438 
	C68.025352,206.205750 66.991875,206.002960 65.832245,205.755432 
	C65.083130,205.972092 64.498390,206.417557 63.944160,206.893723 
	C63.974674,206.924438 63.888783,206.935440 63.636654,206.928955 
	C63.220551,206.959656 63.056572,206.996857 62.892597,207.034042 
	C59.933872,199.241898 56.975147,191.449753 54.085693,183.240387 
z"/>
<path fill="#048EE9" opacity="1.000000" stroke="none" 
	d="
M599.032837,121.729134 
	C599.059387,121.260902 599.085938,120.792679 599.812500,120.341133 
	C607.115601,120.357811 613.718567,120.357811 621.082886,120.357811 
	C621.082886,144.437653 621.082886,168.181625 621.324829,192.267868 
	C625.922729,192.880188 630.278687,193.150208 635.509521,193.474472 
	C634.934875,198.573288 634.412231,203.210632 633.889648,207.847961 
	C630.118042,207.847961 626.346436,207.847961 621.989807,207.847961 
	C621.989807,214.558533 621.989807,220.787521 621.459351,227.485229 
	C615.830078,227.953934 610.731262,227.953934 605.054626,227.953934 
	C605.054626,224.268387 605.201477,221.144852 605.014954,218.041336 
	C604.812805,214.678391 604.300049,211.334122 603.922791,207.981689 
	C603.922791,207.981689 604.020447,207.982208 603.759583,207.698196 
	C588.811218,207.414185 574.123657,207.414185 559.039734,207.414185 
	C559.039734,202.008530 559.039734,197.874435 559.039673,193.740326 
	C565.230286,182.759033 571.507324,171.825348 577.587585,160.783325 
	C583.872375,149.369736 589.966003,137.850891 596.829895,126.102661 
	C597.707153,125.093781 597.897705,124.360313 598.088318,123.626854 
	C598.088318,123.626854 598.001526,123.364494 598.319580,123.206299 
	C598.769348,122.608444 598.901123,122.168793 599.032837,121.729134 
M579.991577,192.013519 
	C579.991577,192.013519 579.976807,191.922913 580.476807,192.615570 
	C586.171692,192.751663 591.867310,193.003937 597.560974,192.963928 
	C599.696106,192.948929 601.826477,192.254486 603.966003,191.965851 
	C603.966003,191.965851 603.869995,191.958359 604.584351,191.499161 
	C604.710632,177.962128 604.836975,164.425095 604.986816,150.136078 
	C604.712463,148.802353 604.438110,147.468628 604.123352,145.938583 
	C595.949036,161.296692 588.034729,176.166245 579.734802,191.197998 
	C579.644104,191.302414 579.553467,191.406830 579.462769,191.511230 
	C579.669434,191.675293 579.876160,191.839340 579.991577,192.013519 
z"/>
<path fill="#141619" opacity="1.000000" stroke="none" 
	d="
M558.038025,149.273865 
	C556.467590,153.489441 554.959473,157.729523 553.312561,161.914993 
	C550.686584,168.588623 547.796875,175.162918 545.324524,181.891586 
	C540.124268,196.044327 535.122620,210.270004 529.729248,224.878540 
	C529.102356,225.444473 528.955811,225.696579 528.979309,226.047623 
	C528.979309,226.047623 528.975769,225.982956 528.641357,226.098877 
	C528.221497,227.151215 528.136047,228.087662 528.050598,229.024094 
	C528.050598,229.024094 528.007690,229.004044 527.572266,228.863449 
	C519.067200,228.755280 510.997467,228.787704 502.927765,228.820145 
	C493.063721,202.817886 483.199646,176.815628 473.263794,150.078857 
	C474.317352,148.558472 475.404327,147.169006 476.574860,147.094681 
	C480.872711,146.821732 485.228912,146.685745 489.499512,147.121628 
	C491.405304,147.316162 493.159973,148.990906 494.983246,149.993851 
	C497.061218,155.325851 499.325745,160.593903 501.180237,166.002548 
	C505.727631,179.265106 510.080078,192.594452 514.539490,205.887360 
	C514.739563,206.483688 515.219788,206.986023 516.117065,208.387115 
	C522.898804,188.625259 529.444641,169.550812 536.342529,149.859711 
	C537.756287,148.460220 538.787964,147.054733 539.885132,147.001648 
	C544.804077,146.763687 549.749390,146.765106 554.666870,147.025711 
	C555.827026,147.087204 556.916199,148.488770 558.038025,149.273865 
z"/>
<path fill="#088FEA" opacity="1.000000" stroke="none" 
	d="
M713.524841,119.058655 
	C713.524841,119.058655 713.487549,119.030502 713.993835,119.255905 
	C714.834351,119.346474 715.168640,119.211632 715.502869,119.076797 
	C715.502869,119.076805 715.507446,119.031845 715.747192,119.386856 
	C716.637695,121.049736 717.773315,122.330086 717.849426,123.670578 
	C718.088623,127.883339 717.929321,132.118713 717.924316,136.345337 
	C714.313538,144.773727 710.861816,153.274658 707.060791,161.616379 
	C697.149719,183.367279 687.088745,205.049866 677.069153,226.751236 
	C676.734863,227.475311 676.202759,228.108093 674.966125,228.831696 
	C669.176941,228.852570 664.184021,228.777069 659.192200,228.821045 
	C657.155334,228.838974 655.436584,228.742889 655.870178,225.985382 
	C660.884216,215.104935 665.852173,204.202942 670.922607,193.348831 
	C679.657166,174.650726 688.455566,155.982407 697.739990,137.063004 
	C698.346802,136.719238 698.440735,136.614059 698.534729,136.508896 
	C698.327087,136.338882 698.119385,136.168869 697.911743,135.998840 
	C697.911743,135.998840 698.005859,135.984146 697.747925,135.702774 
	C695.521179,135.291122 693.553223,135.062256 691.583557,135.046143 
	C675.525574,134.914795 659.467224,134.823181 643.357666,134.274231 
	C643.306335,129.405151 643.306335,124.981354 643.306335,120.096107 
	C645.551575,120.096107 647.341614,120.095589 649.131653,120.096184 
	C668.718567,120.102684 688.305542,120.138123 707.892151,120.069817 
	C709.770874,120.063263 711.647339,119.411110 713.524841,119.058655 
z"/>
<path fill="#0E92EA" opacity="1.000000" stroke="none" 
	d="
M255.943390,152.004318 
	C255.828888,152.928925 256.052612,154.353760 255.545029,154.696899 
	C252.262253,156.916214 245.057693,154.551575 243.586304,150.789413 
	C237.087189,134.172195 227.230942,119.918900 213.259918,108.791023 
	C208.289078,104.831764 202.514908,101.881104 195.972763,97.754272 
	C195.972763,109.446426 195.818130,119.510818 196.165543,129.557846 
	C196.209702,130.835068 198.782578,132.164291 200.349258,133.225281 
	C207.112762,137.805649 209.220871,145.979233 205.341217,152.957886 
	C201.134354,160.525146 192.189163,163.337677 184.236191,159.593704 
	C177.051895,156.211594 173.043350,147.747498 176.191772,140.900146 
	C177.699005,137.622131 180.972900,135.156433 183.990601,132.071457 
	C184.692612,130.879425 184.850693,129.938766 185.008774,128.998093 
	C185.027634,114.656776 185.046494,100.315460 185.455139,85.447586 
	C194.674530,88.313248 203.504837,91.703705 212.333115,95.099373 
	C213.915527,95.708023 215.489639,96.338242 217.067581,96.958511 
	C217.067581,96.958504 217.002899,96.996925 216.848557,97.251236 
	C217.242889,97.698235 217.791550,97.890938 218.340225,98.083641 
	C227.854568,105.550423 236.243683,114.082191 242.957657,124.870338 
	C244.181274,127.660583 245.353378,129.804504 246.764206,131.777771 
	C248.067383,133.600464 249.626450,135.240189 251.072830,136.960495 
	C251.072830,136.960495 251.003052,137.000320 250.759003,137.254684 
	C250.636490,138.010162 250.758026,138.511261 250.906601,139.388931 
	C252.603561,143.845108 254.273468,147.924713 255.943390,152.004318 
M192.281021,151.861298 
	C196.738068,149.855515 198.573074,146.379333 196.663483,143.058731 
	C194.835938,139.880768 191.736145,138.587418 188.684128,140.609970 
	C186.956940,141.754562 185.396072,144.572128 185.421890,146.615173 
	C185.463242,149.886993 188.021423,151.783371 192.281021,151.861298 
z"/>
<path fill="#0E92EA" opacity="1.000000" stroke="none" 
	d="
M184.952087,273.008606 
	C184.936768,270.626068 184.921448,268.243530 185.171066,265.256256 
	C186.622223,264.090179 187.808441,263.528809 188.994659,262.967438 
	C204.621872,258.590546 216.868271,249.147903 227.079300,236.950653 
	C231.465302,231.711487 235.072708,225.820480 239.033844,220.225632 
	C238.705063,219.762665 238.376282,219.299698 238.047516,218.836731 
	C233.808823,218.836731 229.554688,218.640732 225.342148,218.972641 
	C224.270523,219.057068 223.072327,220.663269 222.370819,221.833221 
	C215.181442,233.823257 201.596008,234.147568 193.596481,222.619965 
	C192.671585,221.287125 190.560104,220.497711 188.845215,220.065308 
	C186.789948,219.547058 184.371887,220.162384 182.483734,219.383316 
	C180.975815,218.761108 178.893204,216.596558 179.084045,215.453659 
	C179.401123,213.554840 181.520309,210.323151 182.562195,210.442032 
	C189.788116,211.266586 194.150467,207.362549 199.112106,202.948669 
	C204.934158,197.769424 214.743408,199.555954 220.075607,205.902649 
	C222.130844,208.348923 224.172256,209.208847 227.260483,209.129868 
	C236.238510,208.900162 245.224182,208.969604 254.688614,209.323639 
	C253.261887,214.788544 251.353409,219.851532 249.444916,224.914505 
	C246.354385,229.719345 243.263870,234.524185 239.664047,239.775375 
	C239.125031,240.832123 239.095337,241.442505 239.065643,242.052902 
	C239.065643,242.052902 239.000900,242.001801 238.670898,241.882263 
	C238.238190,242.200653 238.135498,242.638580 238.032806,243.076523 
	C238.032822,243.076523 238.009445,243.009338 237.688873,242.912872 
	C237.253632,243.236923 237.138947,243.657440 237.024261,244.077942 
	C237.024246,244.077942 237.010635,244.009628 236.655487,243.939713 
	C235.887848,244.932968 235.475357,245.996140 235.062866,247.059311 
	C235.062866,247.059311 235.000763,247.002609 234.669678,246.873291 
	C234.237045,247.188141 234.135498,247.632294 234.033966,248.076462 
	C234.033966,248.076462 234.009354,248.009033 233.677582,247.905670 
	C233.241211,248.226822 233.136642,248.651367 233.032059,249.075897 
	C233.032059,249.075897 233.008896,249.009003 232.676361,248.904984 
	C232.240036,249.225906 232.136246,249.650864 232.032471,250.075806 
	C232.032471,250.075806 232.008896,250.008911 231.675995,249.904419 
	C231.239578,250.225159 231.136063,250.650391 231.032562,251.075623 
	C231.032562,251.075623 231.008835,251.008835 230.674957,250.904068 
	C230.238831,251.225067 230.136597,251.650833 230.034363,252.076599 
	C230.034378,252.076599 230.009171,252.009430 229.676834,251.907410 
	C229.241913,252.229233 229.139328,252.653076 229.036743,253.076935 
	C229.036743,253.076935 229.003235,253.004135 228.731384,252.802002 
	C227.983887,253.107376 227.508240,253.614853 227.032562,254.122314 
	C220.318024,258.976715 213.603485,263.831116 206.157654,268.799896 
	C199.951096,270.628021 194.475830,272.341797 189.000549,274.055573 
	C188.219772,274.140259 187.439011,274.224945 186.209137,274.090881 
	C185.490707,273.584320 185.221405,273.296448 184.952087,273.008606 
M204.648239,221.075851 
	C210.629074,222.614075 215.327972,219.254517 213.686295,214.275391 
	C213.032059,212.291077 210.628479,209.748138 208.820831,209.577026 
	C206.726547,209.378769 203.774307,210.991211 202.339691,212.751114 
	C200.101868,215.496368 201.699875,218.364029 204.648239,221.075851 
z"/>
<path fill="#0E92EA" opacity="1.000000" stroke="none" 
	d="
M127.541679,84.676247 
	C131.537872,84.101387 130.204269,87.299332 130.310989,89.003304 
	C130.475494,91.630417 131.498474,94.850800 127.465248,95.954491 
	C113.593628,99.750435 102.754150,108.233788 93.704079,118.941200 
	C88.335266,125.293205 83.979118,132.501129 79.167633,139.324203 
	C79.566345,139.816177 79.965050,140.308151 80.363762,140.800125 
	C84.785431,140.800125 89.226486,141.029037 93.616661,140.657196 
	C94.892830,140.549103 96.264580,138.901001 97.182983,137.656586 
	C105.023140,127.033257 117.462601,127.340034 124.878944,138.259933 
	C125.713531,139.488785 127.613609,140.363724 129.160187,140.654160 
	C131.583908,141.109329 134.279251,140.446411 136.570374,141.171188 
	C138.278488,141.711548 140.921539,144.026138 140.697968,144.970596 
	C140.214127,147.014725 137.939987,150.385117 136.779816,150.236343 
	C128.995438,149.238068 124.639534,153.556290 119.668121,158.572754 
	C114.236122,164.053970 102.338203,161.394287 97.660751,154.305023 
	C95.819267,151.514008 93.846397,150.756836 90.749435,150.763596 
	C82.924622,150.780716 75.099586,150.377533 67.273575,150.334351 
	C64.497192,150.319016 63.680199,149.253540 64.159050,146.317657 
	C63.962147,145.919052 63.988609,145.994217 64.325546,145.957199 
	C64.786064,145.201431 64.909645,144.482666 65.033234,143.763916 
	C68.855148,133.213196 74.564583,123.773582 81.441292,114.925476 
	C89.586609,104.445091 99.914673,96.723183 111.998573,90.110886 
	C117.662102,88.250221 122.601891,86.463234 127.541679,84.676247 
M104.916443,143.403717 
	C103.706367,147.739090 105.433189,150.751038 109.609032,151.682892 
	C113.435852,152.536850 116.432716,150.348663 116.547150,146.530548 
	C116.610352,144.421814 114.915512,141.534286 113.118286,140.257385 
	C110.026718,138.060867 107.173355,139.699127 104.916443,143.403717 
z"/>
<path fill="#0E92EA" opacity="1.000000" stroke="none" 
	d="
M137.664261,218.103043 
	C135.255600,221.722137 132.831116,225.330872 130.448288,228.966904 
	C129.770172,230.001678 129.213165,231.115845 128.502914,232.879135 
	C128.621582,235.371902 128.837952,237.179138 129.054306,238.986374 
	C129.178284,243.661957 129.302261,248.337524 129.412598,253.792755 
	C129.613586,255.711426 129.828232,256.850433 130.042862,257.989441 
	C130.168747,261.335236 130.294632,264.681030 130.401459,268.877625 
	C130.246658,271.105438 130.110931,272.482452 129.963104,273.982330 
	C128.708389,273.813477 128.044754,273.782135 127.409981,273.630219 
	C113.793884,270.371918 102.585609,262.884613 92.294327,253.733429 
	C89.985466,251.680344 87.396919,249.941803 84.937134,248.058456 
	C84.937134,248.058456 85.000000,248.000000 85.230576,247.728943 
	C82.024132,243.210739 78.587112,238.963608 75.150085,234.716461 
	C72.532806,229.762131 69.915527,224.807785 67.251839,219.118805 
	C66.099876,214.567902 64.994331,210.751678 63.888779,206.935440 
	C63.888783,206.935440 63.974674,206.924438 64.238579,206.877167 
	C65.000526,206.547989 65.498566,206.266098 65.996613,205.984207 
	C66.991875,206.002960 68.025352,206.205750 68.975754,206.008438 
	C72.977730,205.177536 74.751007,206.874039 76.167664,210.674255 
	C83.171638,229.462662 95.356575,244.254608 111.927971,255.467331 
	C113.575836,256.582336 115.333038,257.539429 117.068184,258.519043 
	C117.465347,258.743256 117.981384,258.756897 118.984100,258.997223 
	C118.984100,255.083481 119.071777,251.376541 118.959282,247.675674 
	C118.848312,244.024811 118.305077,240.375824 118.373032,236.733871 
	C118.444633,232.896790 117.515755,230.482101 113.533691,228.723389 
	C107.775352,226.180145 105.671059,220.693359 106.073929,214.671768 
	C106.543633,207.651321 110.733505,203.189056 118.026688,200.776001 
	C121.226212,200.658020 123.655609,200.595184 126.085007,200.532349 
	C131.752914,202.562225 135.829880,206.110977 137.289520,212.986984 
	C137.451035,215.209702 137.557648,216.656372 137.664261,218.103043 
M123.930672,221.707260 
	C128.552963,218.405289 129.644058,213.707275 125.896820,211.255966 
	C124.054977,210.051071 120.539505,209.566956 118.803894,210.554214 
	C117.068665,211.541214 115.572159,214.893036 115.818970,216.990784 
	C116.254036,220.688812 119.256256,222.421921 123.930672,221.707260 
z"/>
<path fill="#A4A5A6" opacity="1.000000" stroke="none" 
	d="
M289.977600,118.985016 
	C290.027039,153.793182 290.076599,188.601334 290.125549,223.409500 
	C290.128296,225.361557 290.125946,227.313599 290.125946,229.951248 
	C305.140472,229.951248 319.578522,229.951248 334.482025,229.981903 
	C333.462677,230.354980 331.980469,230.979797 330.492676,230.993301 
	C321.844849,231.071823 313.195770,231.003265 304.547089,230.991348 
	C299.432190,230.984314 294.317291,230.990051 289.012787,230.990051 
	C289.012787,196.351501 289.012390,162.265244 289.013611,128.179001 
	C289.013733,125.349625 289.025208,122.520241 289.327667,119.255119 
	C289.623932,118.819374 289.977600,118.985016 289.977600,118.985016 
z"/>
<path fill="#CBE8FB" opacity="1.000000" stroke="none" 
	d="
M84.949280,248.411743 
	C87.396919,249.941803 89.985466,251.680344 92.294327,253.733429 
	C102.585609,262.884613 113.793884,270.371918 127.409981,273.630219 
	C128.044754,273.782135 128.708389,273.813477 129.963104,273.982330 
	C130.110931,272.482452 130.246658,271.105438 130.519867,269.313751 
	C130.850113,271.070984 131.042862,273.242889 131.078934,275.759521 
	C118.989212,274.541107 108.288544,269.877136 98.989258,262.403656 
	C93.928406,258.336395 89.613045,253.341507 84.949280,248.411743 
z"/>
<path fill="#98D1F6" opacity="1.000000" stroke="none" 
	d="
M621.082886,191.925583 
	C621.082886,168.181625 621.082886,144.437653 621.082886,120.357811 
	C613.718567,120.357811 607.115601,120.357811 600.020508,120.223991 
	C602.715515,119.726410 605.894592,119.184525 609.091431,119.043335 
	C613.220459,118.860977 617.363647,118.998871 622.003540,118.998871 
	C622.003540,143.170288 622.003540,167.098190 621.795532,191.481720 
	C621.419312,191.933395 621.251099,191.929489 621.082886,191.925583 
z"/>
<path fill="#B4DEF9" opacity="1.000000" stroke="none" 
	d="
M713.012207,119.039665 
	C711.647339,119.411110 709.770874,120.063263 707.892151,120.069817 
	C688.305542,120.138123 668.718567,120.102684 649.131653,120.096184 
	C647.341614,120.095589 645.551575,120.096107 643.306335,120.096107 
	C643.306335,124.981354 643.306335,129.405151 643.261780,134.557129 
	C643.183167,135.481094 643.149170,135.676865 643.115234,135.872650 
	C642.739014,132.485016 642.280518,129.103760 642.016846,125.707382 
	C641.853699,123.605919 641.986633,121.481461 641.986633,119.020676 
	C665.749573,119.020676 689.124512,119.020676 713.012207,119.039665 
z"/>
<path fill="#6EBDF2" opacity="1.000000" stroke="none" 
	d="
M558.664917,193.938385 
	C559.039734,197.874435 559.039734,202.008530 559.039734,207.414185 
	C574.123657,207.414185 588.811218,207.414185 603.763428,207.746857 
	C594.394714,208.051498 584.761353,208.017960 575.127930,207.997665 
	C570.131348,207.987137 565.130798,208.104858 560.141296,207.917557 
	C559.093140,207.878204 557.185120,206.726593 557.204590,206.138260 
	C557.337402,202.130066 557.879822,198.135437 558.664917,193.938385 
z"/>
<path fill="#5B5C5D" opacity="1.000000" stroke="none" 
	d="
M415.996399,196.465027 
	C413.197174,195.955719 413.614716,194.809311 415.931427,194.165115 
	C417.484497,193.733261 419.238525,193.996277 420.902618,193.995560 
	C437.367920,193.988480 453.833221,193.991272 470.286011,193.991272 
	C470.970703,191.501862 471.553284,189.383850 472.505371,187.227295 
	C472.874908,189.642456 472.874908,192.096161 472.874908,195.032715 
	C460.910614,195.032715 449.198273,195.030014 437.485901,195.033844 
	C431.522278,195.035797 425.557739,194.996597 419.595856,195.102890 
	C418.415649,195.123947 417.245789,195.724396 415.996399,196.465027 
z"/>
<path fill="#C2E4FA" opacity="1.000000" stroke="none" 
	d="
M216.963394,96.623962 
	C215.489639,96.338242 213.915527,95.708023 212.333115,95.099373 
	C203.504837,91.703705 194.674530,88.313248 185.434570,84.981972 
	C185.510025,84.387985 185.995834,83.733047 186.822998,83.024368 
	C196.808685,85.183998 205.971634,88.590057 214.297607,94.025871 
	C215.241684,94.642227 216.009598,95.528366 216.963394,96.623962 
z"/>
<path fill="#5AB5F1" opacity="1.000000" stroke="none" 
	d="
M603.953369,208.451111 
	C604.300049,211.334122 604.812805,214.678391 605.014954,218.041336 
	C605.201477,221.144852 605.054626,224.268387 605.054626,227.953934 
	C610.731262,227.953934 615.830078,227.953934 621.386658,227.944580 
	C620.736877,228.618118 619.652954,229.840881 618.517700,229.890579 
	C613.561401,230.107544 608.590088,229.983887 603.983887,229.983887 
	C603.983887,222.846359 603.983887,215.883453 603.953369,208.451111 
z"/>
<path fill="#E8E9E9" opacity="1.000000" stroke="none" 
	d="
M290.407043,118.812935 
	C289.977600,118.985016 289.623932,118.819374 289.434204,118.865555 
	C289.843597,118.275696 290.442719,117.084770 291.041840,117.084785 
	C305.989685,117.085075 320.937561,117.211014 336.175110,117.674576 
	C325.728882,118.174500 314.992950,118.313477 304.256989,118.455093 
	C299.783478,118.514107 295.309998,118.578758 290.407043,118.812935 
z"/>
<path fill="#65BAF2" opacity="1.000000" stroke="none" 
	d="
M643.567871,135.934540 
	C643.149170,135.676865 643.183167,135.481094 643.313110,135.002411 
	C659.467224,134.823181 675.525574,134.914795 691.583557,135.046143 
	C693.553223,135.062256 695.521179,135.291122 697.757690,135.749390 
	C680.023804,136.050385 662.022156,136.023407 643.567871,135.934540 
z"/>
<path fill="#77787A" opacity="1.000000" stroke="none" 
	d="
M503.011810,229.236206 
	C510.997467,228.787704 519.067200,228.755280 527.586731,228.882141 
	C527.718079,229.682999 527.403625,230.882019 527.080505,230.884354 
	C519.614990,230.938110 512.148071,230.885300 504.682953,230.760315 
	C504.147888,230.751358 503.624603,230.038071 503.011810,229.236206 
z"/>
<path fill="#5AB5F1" opacity="1.000000" stroke="none" 
	d="
M621.324829,192.267868 
	C621.251099,191.929489 621.419312,191.933395 621.839600,191.945633 
	C625.879089,191.963272 629.683350,191.774323 633.444153,192.095062 
	C634.673340,192.199890 636.713257,193.546524 636.797791,194.470261 
	C637.171448,198.553177 637.032898,202.691345 636.877380,206.801880 
	C636.861023,207.235764 635.516724,207.619431 634.339050,207.937180 
	C634.412231,203.210632 634.934875,198.573288 635.509521,193.474472 
	C630.278687,193.150208 625.922729,192.880188 621.324829,192.267868 
z"/>
<path fill="#B4DEF9" opacity="1.000000" stroke="none" 
	d="
M127.123405,84.466461 
	C122.601891,86.463234 117.662102,88.250221 112.324974,89.982536 
	C116.295578,87.934944 120.663521,85.942039 125.421249,83.964661 
	C126.109070,84.072350 126.407097,84.164513 127.123405,84.466461 
z"/>
<path fill="#C2E4FA" opacity="1.000000" stroke="none" 
	d="
M249.848206,224.949646 
	C251.353409,219.851532 253.261887,214.788544 255.167572,209.320679 
	C255.693619,209.147461 256.222473,209.379135 256.893188,209.876770 
	C254.773849,215.090073 252.512665,220.037430 249.848206,224.949646 
z"/>
<path fill="#5B5C5D" opacity="1.000000" stroke="none" 
	d="
M494.977234,149.543900 
	C493.159973,148.990906 491.405304,147.316162 489.499512,147.121628 
	C485.228912,146.685745 480.872711,146.821732 476.574860,147.094681 
	C475.404327,147.169006 474.317352,148.558472 473.103271,149.765533 
	C472.292023,149.064133 471.569519,147.941544 470.322296,146.003662 
	C478.495605,146.003662 485.651764,145.911667 492.797729,146.139053 
	C493.552795,146.163086 494.248138,148.063858 494.977234,149.543900 
z"/>
<path fill="#CBE8FB" opacity="1.000000" stroke="none" 
	d="
M75.069092,235.098907 
	C78.587112,238.963608 82.024132,243.210739 85.199471,247.758057 
	C81.621231,243.865952 78.304665,239.673660 75.069092,235.098907 
z"/>
<path fill="#B4DEF9" opacity="1.000000" stroke="none" 
	d="
M188.987213,274.318726 
	C194.475830,272.341797 199.951096,270.628021 205.851929,268.931396 
	C200.815979,270.980377 195.354477,273.012207 189.481522,275.072021 
	C189.037994,274.927307 189.005920,274.754578 188.987213,274.318726 
z"/>
<path fill="#77787A" opacity="1.000000" stroke="none" 
	d="
M558.409912,149.049881 
	C556.916199,148.488770 555.827026,147.087204 554.666870,147.025711 
	C549.749390,146.765106 544.804077,146.763687 539.885132,147.001648 
	C538.787964,147.054733 537.756287,148.460220 536.419983,149.472183 
	C536.093628,148.557022 536.041748,147.412750 535.982483,146.106583 
	C542.935852,146.106583 549.717957,146.192719 556.495728,146.058243 
	C558.760010,146.013306 559.667847,146.534805 558.409912,149.049881 
z"/>
<path fill="#CBE8FB" opacity="1.000000" stroke="none" 
	d="
M251.048401,136.578125 
	C249.626450,135.240189 248.067383,133.600464 246.764206,131.777771 
	C245.353378,129.804504 244.181274,127.660583 242.959503,125.222214 
	C247.971085,127.018967 249.448318,131.642120 251.048401,136.578125 
z"/>
<path fill="#C2E4FA" opacity="1.000000" stroke="none" 
	d="
M165.349304,279.694824 
	C165.806000,279.843323 165.854034,280.043640 165.935669,280.551025 
	C161.866074,284.337097 156.997345,282.773529 152.183670,282.237183 
	C151.994827,281.349426 152.010544,281.144531 152.026245,280.939575 
	C156.331039,280.541931 160.635849,280.144287 165.349304,279.694824 
z"/>
<path fill="#CBE8FB" opacity="1.000000" stroke="none" 
	d="
M150.527817,78.176773 
	C150.089600,77.978279 150.063889,77.748055 150.007706,77.171364 
	C155.067780,73.844673 160.169174,75.131943 165.636856,76.972198 
	C165.989349,77.340218 165.976501,77.522072 165.911133,77.972443 
	C160.885849,78.208977 155.913086,78.177002 150.527817,78.176773 
z"/>
<path fill="#C2E4FA" opacity="1.000000" stroke="none" 
	d="
M256.234558,152.000122 
	C254.273468,147.924713 252.603561,143.845108 251.227936,139.372726 
	C251.736008,138.965820 251.949814,138.951691 252.163620,138.937561 
	C253.783569,143.006439 255.403519,147.075302 257.063843,151.536560 
	C256.911407,151.951263 256.718536,151.973602 256.234558,152.000122 
z"/>
<path fill="#CBE8FB" opacity="1.000000" stroke="none" 
	d="
M655.524780,226.156357 
	C655.436584,228.742889 657.155334,228.838974 659.192200,228.821045 
	C664.184021,228.777069 669.176941,228.852570 674.639404,228.963089 
	C668.188721,229.507935 661.268005,229.969696 653.269836,230.503342 
	C654.208923,228.449615 654.694092,227.388474 655.524780,226.156357 
z"/>
<path fill="#B4DEF9" opacity="1.000000" stroke="none" 
	d="
M718.314087,136.096008 
	C717.929321,132.118713 718.088623,127.883339 717.849426,123.670578 
	C717.773315,122.330086 716.637695,121.049736 715.728882,119.400131 
	C717.590027,118.859245 719.329407,118.715630 719.058838,121.941132 
	C718.671875,126.553780 718.797241,131.209412 718.314087,136.096008 
z"/>
<path fill="#C2E4FA" opacity="1.000000" stroke="none" 
	d="
M261.437988,175.241150 
	C261.834625,174.858002 262.124176,174.892487 262.627655,174.986420 
	C262.901062,177.412933 262.955750,179.819977 262.926514,182.618744 
	C262.577728,183.016174 262.317841,183.055145 261.866913,183.143066 
	C261.559143,180.645401 261.447388,178.132095 261.437988,175.241150 
z"/>
<path fill="#C2E4FA" opacity="1.000000" stroke="none" 
	d="
M63.636650,206.928955 
	C64.994331,210.751678 66.099876,214.567902 67.109619,218.791306 
	C65.670265,215.416077 64.326714,211.633667 62.937881,207.442657 
	C63.056572,206.996857 63.220551,206.959656 63.636650,206.928955 
z"/>
<path fill="#CBE8FB" opacity="1.000000" stroke="none" 
	d="
M235.386185,246.970901 
	C235.475357,245.996140 235.887848,244.932968 236.689682,243.946320 
	C236.622528,244.976074 236.166016,245.929291 235.386185,246.970901 
z"/>
<path fill="#F9FCFF" opacity="1.000000" stroke="none" 
	d="
M151.613419,280.741699 
	C152.010544,281.144531 151.994827,281.349426 151.975952,281.862915 
	C151.056580,282.019470 150.140350,281.867462 149.088257,281.393311 
	C149.701782,280.895355 150.451187,280.719574 151.613419,280.741699 
z"/>
<path fill="#77787A" opacity="1.000000" stroke="none" 
	d="
M528.418091,228.955566 
	C528.136047,228.087662 528.221497,227.151215 528.673218,226.093048 
	C528.954773,226.943222 528.870178,227.915115 528.418091,228.955566 
z"/>
<path fill="#CBE8FB" opacity="1.000000" stroke="none" 
	d="
M239.383789,241.951538 
	C239.095337,241.442505 239.125031,240.832123 239.497650,240.077728 
	C239.794357,240.572540 239.748154,241.211349 239.383789,241.951538 
z"/>
<path fill="#C2E4FA" opacity="1.000000" stroke="none" 
	d="
M218.184296,97.821899 
	C217.791550,97.890938 217.242889,97.698235 216.870544,97.220703 
	C217.374023,97.143959 217.701187,97.352058 218.184296,97.821899 
z"/>
<path fill="#F7FBFE" opacity="1.000000" stroke="none" 
	d="
M64.726013,143.919556 
	C64.909645,144.482666 64.786064,145.201431 64.286743,145.966232 
	C64.080269,145.366592 64.249535,144.720901 64.726013,143.919556 
z"/>
<path fill="#CBE8FB" opacity="1.000000" stroke="none" 
	d="
M252.097733,138.623749 
	C251.949814,138.951691 251.736008,138.965820 251.200867,138.996155 
	C250.758026,138.511261 250.636490,138.010162 250.787689,137.226639 
	C251.384216,137.399475 251.708038,137.854706 252.097733,138.623749 
z"/>
<path fill="#CBE8FB" opacity="1.000000" stroke="none" 
	d="
M227.351593,254.058502 
	C227.508240,253.614853 227.983887,253.107376 228.760925,252.829086 
	C228.598404,253.370422 228.134521,253.682541 227.351593,254.058502 
z"/>
<path fill="#98D1F6" opacity="1.000000" stroke="none" 
	d="
M597.771423,123.818657 
	C597.897705,124.360313 597.707153,125.093781 597.130127,125.935257 
	C596.980591,125.365669 597.217529,124.688065 597.771423,123.818657 
z"/>
<path fill="#98D1F6" opacity="1.000000" stroke="none" 
	d="
M598.780762,121.899048 
	C598.901123,122.168793 598.769348,122.608444 598.392822,123.089142 
	C598.274902,122.776443 598.401794,122.422699 598.780762,121.899048 
z"/>
<path fill="#CBE8FB" opacity="1.000000" stroke="none" 
	d="
M238.301544,243.019653 
	C238.135498,242.638580 238.238190,242.200653 238.707840,241.900452 
	C238.906631,242.346390 238.738464,242.654572 238.301544,243.019653 
z"/>
<path fill="#969798" opacity="1.000000" stroke="none" 
	d="
M337.622986,117.989182 
	C337.488068,118.219772 336.998413,118.429504 336.534210,118.276306 
	C336.795837,117.931694 337.032043,117.950005 337.622986,117.989182 
z"/>
<path fill="#B4DEF9" opacity="1.000000" stroke="none" 
	d="
M715.278442,118.788910 
	C715.168640,119.211632 714.834351,119.346474 713.998657,119.278839 
	C714.016113,118.884583 714.535034,118.692802 715.278442,118.788910 
z"/>
<path fill="#77787A" opacity="1.000000" stroke="none" 
	d="
M529.164917,225.947021 
	C528.955811,225.696579 529.102356,225.444473 529.645264,225.247253 
	C529.779785,225.483963 529.606140,225.698364 529.164917,225.947021 
z"/>
<path fill="#65BAF2" opacity="1.000000" stroke="none" 
	d="
M697.945374,136.246719 
	C698.119385,136.168869 698.327087,136.338882 698.534729,136.508896 
	C698.440735,136.614059 698.346802,136.719238 698.053833,136.901840 
	C697.896179,136.817719 697.937561,136.656158 697.945374,136.246719 
z"/>
<path fill="#CBE8FB" opacity="1.000000" stroke="none" 
	d="
M229.305054,253.018173 
	C229.139328,252.653076 229.241913,252.229233 229.710663,251.919357 
	C229.909012,252.342026 229.741196,252.650711 229.305054,253.018173 
z"/>
<path fill="#CBE8FB" opacity="1.000000" stroke="none" 
	d="
M230.303192,252.018250 
	C230.136597,251.650833 230.238831,251.225067 230.708344,250.915924 
	C230.907745,251.341675 230.739883,251.650803 230.303192,252.018250 
z"/>
<path fill="#CBE8FB" opacity="1.000000" stroke="none" 
	d="
M231.301788,251.017990 
	C231.136063,250.650391 231.239578,250.225159 231.709412,249.916290 
	C231.907486,250.341873 231.739243,250.651108 231.301788,251.017990 
z"/>
<path fill="#CBE8FB" opacity="1.000000" stroke="none" 
	d="
M232.301682,250.017975 
	C232.136246,249.650864 232.240036,249.225906 232.709778,248.916626 
	C232.907471,249.341568 232.739197,249.650864 232.301682,250.017975 
z"/>
<path fill="#CBE8FB" opacity="1.000000" stroke="none" 
	d="
M233.300568,249.017487 
	C233.136642,248.651367 233.241211,248.226822 233.711182,247.918259 
	C233.907394,248.342499 233.738235,248.650772 233.300568,249.017487 
z"/>
<path fill="#CBE8FB" opacity="1.000000" stroke="none" 
	d="
M234.303375,248.022583 
	C234.135498,247.632294 234.237045,247.188141 234.706253,246.893890 
	C234.906891,247.352112 234.739853,247.660400 234.303375,248.022583 
z"/>
<path fill="#CBE8FB" opacity="1.000000" stroke="none" 
	d="
M237.294403,244.019562 
	C237.138947,243.657440 237.253632,243.236923 237.722534,242.924377 
	C237.906006,243.341965 237.735275,243.651581 237.294403,244.019562 
z"/>
<path fill="#000000" opacity="1.000000" stroke="none" 
	d="
M311.960663,139.783585 
	C312.277527,139.086761 312.614075,137.773056 312.908447,137.782440 
	C322.720703,138.094894 332.802887,137.260849 342.264008,139.296921 
	C352.592712,141.519684 359.800812,148.446747 363.431305,159.383209 
	C366.333832,168.126816 366.748322,176.650543 365.193207,185.270462 
	C362.577240,199.770447 352.724670,207.543945 338.791382,209.789658 
	C330.371704,211.146698 321.694275,210.904388 312.538300,211.413742 
	C312.348480,209.191284 312.214447,207.622025 312.412659,205.410553 
	C312.829987,183.771042 312.924683,162.773788 312.956116,141.776428 
	C312.957092,141.112640 312.307159,140.447876 311.960663,139.783585 
z"/>
<path fill="#F9FCFF" opacity="1.000000" stroke="none" 
	d="
M311.846466,140.254395 
	C312.307159,140.447876 312.957092,141.112640 312.956116,141.776428 
	C312.924683,162.773788 312.829987,183.771042 312.353149,204.991928 
	C311.885010,183.718765 311.808624,162.221985 311.846466,140.254395 
z"/>
<path fill="#E7F4FD" opacity="1.000000" stroke="none" 
	d="
M77.527893,180.473877 
	C75.947609,184.202316 73.366142,186.870926 69.792038,185.426682 
	C67.520859,184.508926 64.994949,181.430115 64.767212,179.106354 
	C64.575775,177.152863 67.098366,174.053040 69.201736,172.942780 
	C73.270187,170.795303 77.071602,174.308762 77.527893,180.473877 
z"/>
<path fill="#E7F4FD" opacity="1.000000" stroke="none" 
	d="
M245.936325,172.755753 
	C250.383041,173.410477 253.069626,175.961365 252.138168,179.820740 
	C251.590759,182.088760 248.596802,185.077835 246.466965,185.282425 
	C244.350113,185.485748 241.106247,183.101471 239.842377,180.970657 
	C237.766724,177.471176 240.434021,174.109924 245.936325,172.755753 
z"/>
<path fill="#E7F4FD" opacity="1.000000" stroke="none" 
	d="
M162.362900,270.128723 
	C159.612747,272.930542 156.455704,273.328949 154.124146,271.024353 
	C152.552719,269.471069 151.283875,266.171906 151.873154,264.272156 
	C152.477951,262.322418 155.335861,260.185150 157.510742,259.787506 
	C162.531036,258.869629 165.205750,264.463623 162.362900,270.128723 
z"/>
<path fill="#E7F4FD" opacity="1.000000" stroke="none" 
	d="
M162.539581,96.358940 
	C159.542633,98.933983 156.287704,99.831024 153.801804,97.080154 
	C152.309784,95.429077 151.228424,92.024185 151.935745,90.153671 
	C152.656021,88.248856 155.691315,86.302132 157.896790,86.061935 
	C162.913605,85.515564 165.076263,90.323700 162.539581,96.358940 
z"/>
<path fill="#C2E4FA" opacity="1.000000" stroke="none" 
	d="
M172.914124,270.215637 
	C173.080414,270.685242 173.008621,271.336945 172.686981,272.047607 
	C172.516769,271.536926 172.596405,270.967377 172.914124,270.215637 
z"/>
<path fill="#CBE8FB" opacity="1.000000" stroke="none" 
	d="
M162.487549,161.189209 
	C163.087097,161.331223 163.544968,161.761398 164.035385,162.438370 
	C163.493912,162.282562 162.919876,161.879974 162.487549,161.189209 
z"/>
<path fill="#C2E4FA" opacity="1.000000" stroke="none" 
	d="
M245.156158,163.226929 
	C245.567612,162.916794 246.149933,162.760345 246.874451,162.839630 
	C246.453445,163.177124 245.890244,163.278870 245.156158,163.226929 
z"/>
<path fill="#C2E4FA" opacity="1.000000" stroke="none" 
	d="
M141.784637,262.378967 
	C141.672180,261.776123 141.782410,260.966492 142.199249,260.022980 
	C142.339676,260.650116 142.173508,261.411163 141.784637,262.378967 
z"/>
<path fill="#C2E4FA" opacity="1.000000" stroke="none" 
	d="
M242.777969,194.882233 
	C242.332535,195.086258 241.686172,195.073273 240.957947,194.825348 
	C241.443054,194.615341 242.010056,194.640274 242.777969,194.882233 
z"/>
<path fill="#C2E4FA" opacity="1.000000" stroke="none" 
	d="
M167.864990,196.685852 
	C167.505066,197.046051 166.884491,197.264084 166.140366,197.278168 
	C166.545990,196.897354 167.075165,196.720520 167.864990,196.685852 
z"/>
<path fill="#B4DEF9" opacity="1.000000" stroke="none" 
	d="
M188.791718,262.738007 
	C187.808441,263.528809 186.622223,264.090179 185.135925,264.811005 
	C186.086807,264.149841 187.337799,263.329193 188.791718,262.738007 
z"/>
<path fill="#B4DEF9" opacity="1.000000" stroke="none" 
	d="
M184.745850,273.151550 
	C185.221405,273.296448 185.490707,273.584320 185.823242,274.164062 
	C185.437515,274.068817 184.988556,273.681641 184.745850,273.151550 
z"/>
<path fill="#C2E4FA" opacity="1.000000" stroke="none" 
	d="
M184.750961,129.191772 
	C184.850693,129.938766 184.692612,130.879425 184.244446,131.849976 
	C184.133926,131.048370 184.313538,130.216904 184.750961,129.191772 
z"/>
<path fill="#000000" opacity="1.000000" stroke="none" 
	d="
M415.881348,177.176208 
	C414.599823,170.062469 426.771606,159.776779 433.473083,160.541519 
	C446.197937,161.993637 450.276733,165.204971 453.514282,179.628296 
	C440.367798,180.021088 427.665894,179.993149 414.963989,179.965210 
	C414.963989,179.965195 414.974457,180.028214 415.076447,179.729950 
	C415.412750,178.679871 415.647064,177.928040 415.881348,177.176208 
z"/>
<path fill="#5B5C5D" opacity="1.000000" stroke="none" 
	d="
M415.240784,180.285217 
	C427.665894,179.993149 440.367798,180.021088 453.538116,180.015442 
	C453.443573,180.288101 452.879639,180.863220 452.317841,180.861084 
	C440.050934,180.814453 427.784302,180.703674 415.240784,180.285217 
z"/>
<path fill="#5B5C5D" opacity="1.000000" stroke="none" 
	d="
M415.564362,177.174805 
	C415.647064,177.928040 415.412750,178.679871 415.108398,179.730209 
	C415.108032,179.076950 415.177704,178.125183 415.564362,177.174805 
z"/>
<path fill="#CBE8FB" opacity="1.000000" stroke="none" 
	d="
M125.942108,200.204041 
	C123.655609,200.595184 121.226212,200.658020 118.353119,200.610306 
	C120.539352,200.291748 123.169281,200.083740 125.942108,200.204041 
z"/>
<path fill="#CBE8FB" opacity="1.000000" stroke="none" 
	d="
M129.325989,238.730362 
	C128.837952,237.179138 128.621582,235.371902 128.569366,233.255722 
	C129.021561,234.789307 129.309616,236.631821 129.325989,238.730362 
z"/>
<path fill="#CBE8FB" opacity="1.000000" stroke="none" 
	d="
M137.947052,217.959015 
	C137.557648,216.656372 137.451035,215.209702 137.433228,213.334213 
	C137.757965,214.541916 137.993896,216.178452 137.947052,217.959015 
z"/>
<path fill="#CBE8FB" opacity="1.000000" stroke="none" 
	d="
M130.290863,257.793762 
	C129.828232,256.850433 129.613586,255.711426 129.538757,254.234711 
	C129.965332,255.130707 130.252106,256.364410 130.290863,257.793762 
z"/>
<path fill="#C2E4FA" opacity="1.000000" stroke="none" 
	d="
M65.832245,205.755432 
	C65.498566,206.266098 65.000526,206.547989 64.208069,206.846451 
	C64.498390,206.417557 65.083130,205.972092 65.832245,205.755432 
z"/>
<path fill="#000000" opacity="1.000000" stroke="none" 
	d="
M580.120361,191.035797 
	C588.034729,176.166245 595.949036,161.296692 604.123352,145.938583 
	C604.438110,147.468628 604.712463,148.802353 604.595947,150.737732 
	C604.093323,164.879044 603.981689,178.418701 603.869995,191.958359 
	C603.869995,191.958359 603.966003,191.965851 603.501099,191.803070 
	C595.349731,191.734497 587.663269,191.828705 579.976807,191.922913 
	C579.976807,191.922913 579.991577,192.013519 580.001465,191.764618 
	C580.011292,191.515732 580.120361,191.035782 580.120361,191.035797 
z"/>
<path fill="#6EBDF2" opacity="1.000000" stroke="none" 
	d="
M604.227173,191.728760 
	C603.981689,178.418701 604.093323,164.879044 604.584167,151.113724 
	C604.836975,164.425095 604.710632,177.962128 604.227173,191.728760 
z"/>
<path fill="#6EBDF2" opacity="1.000000" stroke="none" 
	d="
M580.226807,192.269241 
	C587.663269,191.828705 595.349731,191.734497 603.497559,191.755066 
	C601.826477,192.254486 599.696106,192.948929 597.560974,192.963928 
	C591.867310,193.003937 586.171692,192.751663 580.226807,192.269241 
z"/>
<path fill="#6EBDF2" opacity="1.000000" stroke="none" 
	d="
M579.927612,191.116882 
	C580.120361,191.035782 580.011292,191.515732 580.047058,191.759567 
	C579.876160,191.839340 579.669434,191.675293 579.462769,191.511230 
	C579.553467,191.406830 579.644104,191.302414 579.927612,191.116882 
z"/>
<path fill="#E7F4FD" opacity="1.000000" stroke="none" 
	d="
M191.892380,151.873230 
	C188.021423,151.783371 185.463242,149.886993 185.421890,146.615173 
	C185.396072,144.572128 186.956940,141.754562 188.684128,140.609970 
	C191.736145,138.587418 194.835938,139.880768 196.663483,143.058731 
	C198.573074,146.379333 196.738068,149.855515 191.892380,151.873230 
z"/>
<path fill="#E7F4FD" opacity="1.000000" stroke="none" 
	d="
M204.345001,220.854050 
	C201.699875,218.364029 200.101868,215.496368 202.339691,212.751114 
	C203.774307,210.991211 206.726547,209.378769 208.820831,209.577026 
	C210.628479,209.748138 213.032059,212.291077 213.686295,214.275391 
	C215.327972,219.254517 210.629074,222.614075 204.345001,220.854050 
z"/>
<path fill="#E7F4FD" opacity="1.000000" stroke="none" 
	d="
M105.063568,143.071060 
	C107.173355,139.699127 110.026718,138.060867 113.118286,140.257385 
	C114.915512,141.534286 116.610352,144.421814 116.547150,146.530548 
	C116.432716,150.348663 113.435852,152.536850 109.609032,151.682892 
	C105.433189,150.751038 103.706367,147.739090 105.063568,143.071060 
z"/>
<path fill="#E7F4FD" opacity="1.000000" stroke="none" 
	d="
M123.547943,221.808228 
	C119.256256,222.421921 116.254036,220.688812 115.818970,216.990784 
	C115.572159,214.893036 117.068665,211.541214 118.803894,210.554214 
	C120.539505,209.566956 124.054977,210.051071 125.896820,211.255966 
	C129.644058,213.707275 128.552963,218.405289 123.547943,221.808228 
z"/>
</svg>